<?xml version="1.0" encoding="utf-8"?>
<!-- Generator: Adobe Illustrator 23.0.0, SVG Export Plug-In . SVG Version: 6.00 Build 0)  -->
<svg version="1.1" id="Capa_1" xmlns="http://www.w3.org/2000/svg" xmlns:xlink="http://www.w3.org/1999/xlink" x="0px" y="0px"
	 viewBox="0 0 512 512" style="enable-background:new 0 0 512 512;" xml:space="preserve">
<style type="text/css">
	.st0{fill:#DDC190;}
</style>
<path class="st0" d="M236.6,56.8l-96.9-18.9c-4.2-0.8-8.5,1.1-10.6,4.8c-1.4,2.5-35.7,62.1-50.6,138.4c-3.4,17.6-4.9,35.1-4.6,51.7
	c0.2,13,1.7,26.1,4.7,38.8c0.8,3.6,1.8,7.2,2.9,10.7c8.3,26.4,22.5,44.4,40.6,51.9L101.1,447L56,438.2c-11.4-2.2-23.2,4.1-27.5,14.9
	c-0.7,1.8-1.2,3.7-1.6,5.7c-0.4,1.8-0.8,3.6-0.9,5.5c-0.4,5.9,1.4,11.8,4.9,16.5c3.6,4.8,9,8.1,14.9,9.3l110,21.5
	c9.5,1.9,19.6-2.4,25.1-10.4c1.4-2.1,2.5-4.4,3.2-6.9c0.8-3,1.5-6.2,1.7-9.3c0.3-5.7-1.5-11.4-5-16c-3.6-4.8-9-8.1-14.9-9.3
	l-45.2-8.8L141.8,338c18.5-0.2,37.3-10.4,54.1-29.5c1.4-1.6,2.7-3.2,4-4.8c12.4-15.4,22.7-34.8,30.3-56.6c3.9-11.3,7-22.8,9.3-34.5
	c14.9-76.3,5.6-144.4,5.2-147.3C244,61,240.8,57.6,236.6,56.8z M165.1,481.3c0.8,1.1,0.8,2.5,0.6,3.8c-0.2,1.2-0.4,2.6-0.8,3.7
	c-0.8,2.1-2.8,3.5-5.1,3l-110-21.5c-1.3-0.3-2.5-1.1-3.1-2.3c-0.9-1.6-0.4-3.3-0.1-5c0.3-1.5,0.5-3,1.7-4.1c1.1-1,2.5-1.4,3.9-1.1
	l110,21.5C163.8,479.7,164.7,480.7,165.1,481.3z M143.1,59l82.5,16.1c1.9,19.1,5.7,74.3-5.8,133.6c-0.9,4.7-2,9.4-3.2,13.9H94
	c0.3-12.2,1.7-24.9,4.2-37.6C109.8,125.8,134.1,76,143.1,59z M201.8,263c-5.1,10.4-11.2,20.4-18.6,29.4
	c-10.8,13.1-22.2,21.4-33.1,24.3c-5.5,1.5-11.3,1.6-16.8,0.1c-9.3-2.6-17.4-9.8-23.9-20.5c-7.4-12.5-11.3-26.9-13.5-41.1
	c-0.6-4.1-1.1-8.3-1.4-12.5h115.9C207.9,249.6,205.1,256.4,201.8,263z"/>
<path class="st0" d="M202.1,174.3c0.3,0,0.6,0,0.9,0c5.1,0,9.5-3.9,10-9.1c1.9-20.6,2.4-42,1.6-63.4c-0.2-5.5-4.8-9.9-10.4-9.6
	c-5.5,0.2-9.9,4.9-9.6,10.4c0.8,20.6,0.3,41-1.5,60.8C192.6,168.9,196.6,173.8,202.1,174.3z"/>
<path class="st0" d="M485.5,461.2c-0.7-3.7-1.5-7.4-3.3-10.7c-1.5-2.9-3.7-5.4-6.2-7.4c-5.6-4.5-13-6.3-20.1-4.9l-45.1,8.8
	l-22-112.9c38.7-16.1,57.6-80.2,43.4-153c-14.9-76.3-49.1-135.9-50.6-138.4c-2.1-3.7-6.4-5.6-10.6-4.8l-96.9,18.9
	c-4.2,0.8-7.4,4.2-8,8.5c-0.4,2.9-9.7,71,5.2,147.3c14.2,72.8,55.9,125.1,97.8,125.5l22,112.9l-45.1,8.8
	c-9.4,1.8-17.1,9.4-19.3,18.7c-1.3,5.5-0.4,11.4,1.3,16.8c1.7,5.2,5.2,9.8,9.7,12.8c5.4,3.6,12.1,4.9,18.4,3.7l110-21.5
	C479.3,487.5,488.1,474.4,485.5,461.2z M285.2,75.1L367.7,59c8.9,17,33.3,66.9,44.8,126c0.5,2.6,1,5.2,1.4,7.8H288.3
	C280.2,139.9,283.5,92.5,285.2,75.1z M465.1,468.5c-0.4,0.6-1.3,1.6-2.9,1.9l-110,21.5c-1.4,0.3-2.9-0.2-3.9-1.1
	c-1.2-1.1-1.4-2.6-1.7-4.1c-0.3-1.5-0.7-3.2-0.1-4.7c0.6-1.3,1.8-2.3,3.3-2.6l110-21.5c2.3-0.4,4.3,1,5.1,3
	C465.8,463.1,466.5,466.4,465.1,468.5z M367.6,317.8c-8.7-0.5-16.8-4.5-23.7-9.6s-12.8-11.4-18.1-18.1c-3.2-4.1-6.1-8.4-8.8-12.8
	c-5.2-8.4-9.9-17.8-14-28c-4.8-11.8-8.4-24.1-11.1-36.6h124.3c1.3,18.3,0.5,37-3.8,54.8c-1.2,5.1-2.7,10.1-4.6,15
	c-7,18.4-17.6,30.4-30,34C374.6,317.7,371.1,318.1,367.6,317.8z"/>
<path class="st0" d="M263.9,10c0-5.5-4.5-10-10-10c-5.5,0-10,4.5-10,10v32.6c0,5.5,4.5,10,10,10c5.5,0,10-4.5,10-10V10z"/>
<path class="st0" d="M213.2,38c1.9,3.1,5.2,4.8,8.6,4.8c1.8,0,3.6-0.5,5.2-1.5c4.7-2.9,6.3-9.1,3.4-13.8L218,7.2
	c-2.9-4.7-9.1-6.2-13.8-3.4c-4.7,2.9-6.2,9.1-3.4,13.8L213.2,38z"/>
<path class="st0" d="M282.8,41.4c1.6,1,3.4,1.5,5.2,1.5c3.4,0,6.7-1.7,8.6-4.8L309,17.6c2.9-4.7,1.4-10.9-3.4-13.8
	c-4.7-2.9-10.9-1.4-13.8,3.4l-12.4,20.4C276.6,32.3,278.1,38.5,282.8,41.4z"/>
<path class="st0" d="M360.7,125c3.8,10.5,7.3,21.1,10.3,31.8c1.2,4.2,1.9,8.7,5.9,11.2c3.6,2.2,8.3,1.8,11.5-0.8
	c3-2.5,4.3-6.6,3.3-10.4c-1.3-5.2-2.9-10.4-4.5-15.5c-1.6-5.3-3.4-10.6-5.2-15.9c-0.9-2.6-1.7-5.3-2.8-7.8c-0.7-1.7-2-3.2-3.5-4.3
	c-3.5-2.4-8.4-2.3-11.8,0.3C360.6,116.2,359.2,120.9,360.7,125z"/>
<path class="st0" d="M207.5,204c0,5.6-4.5,10.1-10.1,10.1c-5.6,0-10.1-4.5-10.1-10.1c0-5.6,4.5-10.1,10.1-10.1
	C203,194,207.5,198.5,207.5,204z"/>
<path class="st0" d="M365.1,84.6c0,5.6-4.5,10.1-10.1,10.1s-10.1-4.5-10.1-10.1c0-5.6,4.5-10.1,10.1-10.1S365.1,79,365.1,84.6z"/>
</svg>
