<?xml version="1.0" encoding="utf-8"?>
<!-- Generator: Adobe Illustrator 23.0.0, SVG Export Plug-In . SVG Version: 6.00 Build 0)  -->
<svg version="1.1" id="Capa_1" xmlns="http://www.w3.org/2000/svg" xmlns:xlink="http://www.w3.org/1999/xlink" x="0px" y="0px"
	 viewBox="0 0 908 1303" style="enable-background:new 0 0 908 1303;" xml:space="preserve">
<style type="text/css">
	.st0{display:none;}
	.st1{display:inline;fill:#1D1D1B;stroke:#1D1D1B;stroke-width:2;stroke-miterlimit:10;}
</style>
<g>
	<g>
		<path d="M366.8,853.4c-3.6,0-7.3-0.5-11.2-1.6c-3.9-1.1-7.1-2.9-9.7-5.5s-3.9-6-3.9-10.3c0-0.5,0-1.1,0-1.7c0-0.6,0.1-1.2,0.2-1.7
			c1.1-6.3,3.9-12.2,8.4-17.8s10.2-10.8,17-15.7s14.2-9.3,22.3-13.3c8.1-4,16.2-7.6,24.4-10.7c8.2-3.1,16-5.8,23.3-8
			s13.5-3.8,18.6-4.9c1.7-0.4,3.5-0.7,5.2-1s3.5-0.5,5.2-0.6c2.7-5.1,4.8-10.3,6.5-15.8s2.5-10.2,2.5-14.2c0-3.1-0.5-5.3-1.6-6.6
			c-1.1,0.9-2.4,2.3-4,4.1s-3.3,3.8-5.2,5.9c-1.9,2.1-3.9,4.3-6.2,6.6c-2.3,2.3-4.6,4.3-7,6.2c-3.5,2.9-7,5.3-10.7,7.2
			s-7.1,2.8-10.3,2.8c-2.1,0-4.1-0.4-5.8-1.2c-1.7-0.8-3.3-2.1-4.6-4c-1.5-2.3-2.2-4.7-2.2-7.2c0-4.3,1.6-8.9,4.8-14
			c3.2-5.1,7.1-9.8,11.6-14.2c0.4-0.5,1.1-1.3,2.1-2.2s1.9-1.7,2.7-2.2c0.1-0.7,0.4-1.5,0.9-2.5s1.2-2,2.1-2.9
			c0.8-0.9,1.8-1.8,2.9-2.5s2.2-1.1,3.3-1.1c0.8,0,1.5,0.2,2,0.6c1.2,0.5,2.3,1.2,3.3,2.1c1,0.9,1.5,1.8,1.5,2.9
			c0,1.2-0.7,2.5-2,3.8l-4.2,4c-3.5,3.3-7,6.8-10.5,10.4c-3.5,3.6-6.5,7-9,10.3s-3.8,6-4.1,8.3c-0.1,0.4-0.2,0.8-0.2,1.2
			s0,0.8,0,1.2c0,1.9,0.4,3.1,1.1,3.8s1.5,1,2.3,1c2,0,4.3-0.8,7-2.4c2.7-1.6,5.2-3.4,7.7-5.3c2.5-1.9,4.3-3.4,5.5-4.3
			c3.7-3.2,7.4-6.5,11-9.9s7.1-6.8,10.6-10.1c-0.1-1.2,0.5-2.4,1.8-3.7s3.5-1.9,6.4-1.9s5.1,1.1,6.4,3.4c1.3,2.3,2,5.2,2,8.8
			c0,3.9-0.7,8.5-2.1,13.9s-3.6,11.3-6.5,17.7c-0.1,0.3-0.3,0.6-0.4,0.9c-0.1,0.3-0.3,0.6-0.6,0.9c1.5,0.1,2.8,0.2,4.1,0.3
			c1.3,0.1,2.6,0.2,3.9,0.3c4,0.5,8,1.4,12,2.6s6.5,3.1,7.6,5.6c0,0.1,0,0.2,0.1,0.3s0.1,0.2,0.1,0.3c0,0.5-0.1,0.9-0.4,1.2
			s-0.5,0.5-0.8,0.8c-0.1,0.1-0.5,0.2-1,0.2c-0.7,0-1.2-0.3-1.6-1c-0.5-1.5-2.4-2.6-5.6-3.4c-3.2-0.8-6.9-1.3-11-1.6
			c-1.7-0.3-3.4-0.4-5.1-0.4s-3.3,0.1-4.9,0.2c-4.1,7.9-9.2,15.9-15.2,24.1S447,806,439.7,813.5s-15,14.3-23.1,20.3
			s-16.4,10.8-24.8,14.3C383.4,851.7,375.1,853.4,366.8,853.4z M364.6,848.2c7.7,0,15.5-1.7,23.3-5.2s15.4-8.1,22.7-14
			c7.3-5.9,14.3-12.4,20.9-19.5s12.6-14.4,18-21.8c5.4-7.4,10-14.4,13.7-20.9c-1.2,0.1-2.4,0.3-3.7,0.6c-1.3,0.3-2.6,0.5-3.9,0.8
			c-8.8,1.7-18.1,4.4-28,8.1c-9.9,3.7-19.6,8-29.3,13.1c-9.7,5.1-18.8,10.6-27.3,16.6c-8.3,6-14.2,11.5-17.8,16.6
			c-3.6,5.1-5.4,9.5-5.4,13.2s1.5,6.7,4.5,9C355.3,847.1,359.4,848.2,364.6,848.2z"/>
	</g>
	<g>
		<path d="M67.1,333.9c-1,0.6-2,0.8-3,0.5s-1.8-0.9-2.3-1.9c-0.6-1-0.8-2-0.5-3c0.2-1,0.9-1.8,1.9-2.4c1-0.6,2-0.8,2.9-0.5
			s1.7,0.9,2.3,1.9c0.6,1,0.8,1.9,0.5,2.9C68.8,332.5,68.1,333.3,67.1,333.9z M87.6,368.3c-1,0.6-1.9,0.7-2.7,0.4
			c-0.9-0.3-1.6-0.9-2.1-1.9L69.1,341c-0.7-1.3-0.5-2.3,0.6-2.9c1-0.6,1.9-0.3,2.8,0.9l16,24.4c0.6,0.9,0.9,1.9,0.7,2.7
			C89.1,367.1,88.5,367.8,87.6,368.3z"/>
		<path d="M113.4,339.2c-1.7,0.8-2.9,0.3-3.8-1.4L90,297.3c-0.9-1.8-0.5-3,1-3.8c0.6-0.3,1.2-0.4,1.6-0.4c0.5,0.1,1,0.3,1.7,0.7
			l43.2,22.1L121,282c-0.8-1.7-0.4-2.9,1.2-3.8c1.6-0.8,2.8-0.3,3.6,1.4l19.8,40.6c0.8,1.7,0.5,2.9-0.9,3.6
			c-0.6,0.3-1.2,0.4-1.7,0.4c-0.5-0.1-1.1-0.3-1.8-0.6L98,301.4l16.6,34C115.4,337.1,115,338.4,113.4,339.2z"/>
		<path d="M196.3,303.3c-4.3,1.6-8.5,1.9-12.4,1.1s-7.4-2.7-10.5-5.7c-3-3-5.5-6.9-7.2-11.8c-1.8-4.9-2.4-9.5-2-13.7s1.9-7.9,4.4-11
			s6-5.5,10.4-7c4.4-1.6,8.6-2,12.5-1.2s7.4,2.7,10.4,5.6s5.4,6.9,7.2,11.8s2.4,9.5,1.9,13.8s-2,7.9-4.5,11.1
			C204.2,299.4,200.7,301.7,196.3,303.3z M194.6,298.4c5-1.8,8.3-4.9,9.8-9.2c1.5-4.4,1.2-9.6-1-15.7s-5.3-10.3-9.2-12.7
			s-8.4-2.6-13.5-0.8c-4.9,1.8-8.2,4.8-9.7,9.2c-1.5,4.3-1.2,9.5,1,15.6c2.2,6,5.2,10.3,9.2,12.7
			C185.2,299.9,189.6,300.2,194.6,298.4z"/>
		<path d="M262.7,283.3c-3.3,0.8-6.5,1.2-9.6,1.1s-5.9-0.6-8.4-1.7c-0.9-0.3-1.4-0.8-1.7-1.5s-0.4-1.3-0.2-2c0.1-0.7,0.5-1.2,1-1.5
			c0.5-0.4,1.3-0.4,2.2-0.1c2.4,1,4.9,1.5,7.4,1.6s5.2-0.3,8.1-1c4.1-1,7-2.5,8.6-4.6c1.6-2,2.1-4.3,1.5-6.8c-0.5-2-1.6-3.4-3.4-4.3
			c-1.7-0.8-4.4-1.2-7.9-1l-7.5,0.3c-4.5,0.1-8.1-0.6-10.8-2.1s-4.4-4.1-5.3-7.6c-0.7-2.9-0.6-5.6,0.4-8.1s2.6-4.7,5-6.5
			s5.3-3.2,8.8-4.1c2.9-0.7,5.7-1,8.4-0.8s5.2,0.8,7.7,1.9c0.8,0.3,1.3,0.8,1.6,1.5c0.3,0.6,0.3,1.3,0.1,1.9
			c-0.2,0.6-0.6,1.1-1.1,1.4c-0.6,0.3-1.3,0.3-2.3,0c-2.2-1-4.3-1.5-6.5-1.6c-2.1-0.1-4.4,0.1-6.7,0.7c-3.6,0.9-6.3,2.4-8,4.6
			s-2.3,4.7-1.6,7.4c0.5,2.2,1.6,3.8,3.3,4.7s4.1,1.3,7.3,1.2l7.5-0.3c4.9-0.2,8.6,0.4,11.3,1.8c2.7,1.4,4.5,3.8,5.3,7.1
			c0.7,2.7,0.5,5.3-0.4,7.7s-2.6,4.5-5,6.3C269.4,281,266.3,282.4,262.7,283.3z"/>
		<path d="M368.8,265.9c-4.9,0.4-9.2-0.2-12.8-2c-3.6-1.8-6.6-4.5-8.8-8.1c-2.2-3.6-3.5-8.1-4-13.4c-0.5-5.2,0.1-9.8,1.6-13.8
			s3.9-7.1,7.2-9.5c3.3-2.4,7.4-3.8,12.3-4.2c2.9-0.3,5.7-0.1,8.4,0.5c2.7,0.6,5.1,1.6,7.2,3c0.8,0.5,1.4,1.1,1.5,1.9
			c0.2,0.7,0.1,1.4-0.2,2c-0.3,0.6-0.8,1-1.5,1.3c-0.7,0.2-1.4,0.1-2.3-0.5c-3.6-2.4-7.7-3.4-12.5-2.9c-5.6,0.5-9.7,2.6-12.4,6.4
			c-2.6,3.8-3.7,8.9-3.1,15.3c0.6,6.4,2.5,11.3,5.8,14.5c3.3,3.3,7.7,4.6,13.3,4.2c4.7-0.4,8.7-2.1,11.9-5.2
			c0.8-0.6,1.5-0.9,2.2-0.8c0.7,0.1,1.2,0.4,1.6,0.9s0.6,1.2,0.6,1.9s-0.4,1.4-1,2c-1.9,1.9-4.1,3.4-6.6,4.5
			C374.6,265,371.8,265.6,368.8,265.9z"/>
		<path d="M412.4,263.3c-1.1,0-1.9-0.4-2.3-1.2c-0.4-0.8-0.4-1.7,0.2-2.8l20-44c0.8-1.7,1.9-2.6,3.5-2.6c0.7,0,1.4,0.2,1.9,0.6
			c0.6,0.4,1.1,1.1,1.4,2l18.9,44.5c0.5,1.1,0.6,2.1,0.2,2.8c-0.4,0.7-1.1,1.1-2.3,1.1c-0.8,0-1.5-0.2-2-0.7s-0.9-1.1-1.2-2
			l-4.5-10.7l-26-0.3l-4.7,10.5C414.9,262.4,413.8,263.3,412.4,263.3z M433.7,220l-11.2,25.3l21.8,0.3L433.7,220L433.7,220z"/>
		<path d="M500.5,267.9c-3.4-0.4-6.5-1.1-9.4-2.3c-2.9-1.2-5.3-2.7-7.3-4.5c-0.7-0.6-1.1-1.3-1.1-2s0.1-1.4,0.5-1.9
			c0.4-0.6,0.9-0.9,1.5-1.1c0.6-0.1,1.3,0.1,2.1,0.7c1.9,1.8,4.1,3.1,6.4,4.1c2.3,0.9,5,1.6,8,1.9c4.2,0.5,7.4,0,9.6-1.3
			c2.2-1.3,3.5-3.3,3.8-5.9c0.2-2.1-0.3-3.8-1.7-5.2c-1.3-1.4-3.7-2.6-7.1-3.7l-7.1-2.3c-4.3-1.4-7.4-3.3-9.4-5.7
			c-1.9-2.4-2.7-5.3-2.3-8.9c0.3-3,1.4-5.4,3.2-7.5c1.8-2.1,4.1-3.5,6.9-4.4c2.9-0.9,6.1-1.2,9.6-0.8c3,0.3,5.7,1.1,8.1,2.2
			c2.5,1.1,4.6,2.6,6.5,4.5c0.6,0.6,0.9,1.2,1,1.9c0,0.7-0.1,1.3-0.5,1.8s-0.9,0.8-1.5,0.9c-0.6,0.1-1.3-0.2-2.1-0.8
			c-1.7-1.7-3.5-2.9-5.5-3.8c-2-0.8-4.2-1.4-6.5-1.7c-3.7-0.4-6.8,0.1-9.1,1.6s-3.8,3.6-4.1,6.4c-0.3,2.2,0.2,4.1,1.5,5.6
			c1.2,1.5,3.4,2.7,6.5,3.6l7.1,2.4c4.6,1.5,8,3.4,10,5.7c2,2.2,2.9,5.1,2.5,8.5c-0.3,2.8-1.3,5.1-3,7.1c-1.7,1.9-4,3.3-6.9,4.2
			C507.6,268.2,504.3,268.4,500.5,267.9z"/>
		<path d="M546.2,274.3c-1.1-0.2-1.8-0.8-2-1.6c-0.3-0.8,0-1.7,0.7-2.7l28.4-39.2c1.1-1.5,2.4-2.2,3.9-1.8c0.7,0.1,1.3,0.5,1.8,1
			s0.8,1.3,1,2.3l9.7,47.4c0.3,1.2,0.1,2.2-0.4,2.8s-1.3,0.9-2.5,0.6c-0.8-0.2-1.5-0.5-1.9-1.1c-0.4-0.5-0.7-1.3-0.8-2.2l-2.3-11.3
			l-25.4-5.5l-6.7,9.4C548.8,273.9,547.6,274.6,546.2,274.3z M575.6,236.1l-16,22.6l21.3,4.6L575.6,236.1L575.6,236.1z"/>
		<path d="M619.3,292c-1.7-0.6-2.2-1.8-1.6-3.5l14.5-42.8c0.6-1.8,1.8-2.4,3.5-1.8c0.7,0.2,1.2,0.6,1.6,1c0.3,0.4,0.6,1,0.7,1.8
			l6.3,38.6l28.4-26.8c0.6-0.5,1.1-0.9,1.6-1.1s1.1-0.1,1.9,0.2c1.7,0.6,2.2,1.7,1.6,3.5l-14.5,42.8c-0.6,1.8-1.8,2.4-3.5,1.8
			s-2.2-1.8-1.6-3.5l11.8-34.7l-25,23.3c-0.5,0.5-1,0.8-1.4,0.9s-0.9,0.1-1.6-0.1c-0.6-0.2-1.1-0.5-1.3-0.9
			c-0.3-0.4-0.4-0.9-0.5-1.5l-5.7-33.6l-11.7,34.6C622.1,292,621,292.6,619.3,292z"/>
		<path d="M710.9,327.9c-4.2-2-7.4-4.6-9.6-8c-2.2-3.4-3.3-7.2-3.4-11.4c0-4.2,1-8.7,3.3-13.5c2.2-4.7,5-8.4,8.3-11.1
			s6.9-4.2,10.9-4.6s8.1,0.4,12.3,2.4c4.3,2,7.5,4.7,9.7,8s3.3,7.1,3.4,11.3c0.1,4.2-1,8.7-3.3,13.4c-2.2,4.7-5,8.4-8.4,11.1
			s-7,4.2-11,4.6C719.2,330.7,715.1,329.9,710.9,327.9z M713.1,323.2c4.8,2.3,9.3,2.4,13.5,0.4s7.6-5.9,10.4-11.7
			c2.8-5.8,3.6-11,2.5-15.5s-4.1-7.8-8.9-10.1c-4.7-2.2-9.2-2.4-13.3-0.4c-4.2,2-7.6,5.9-10.4,11.7c-2.7,5.8-3.6,10.9-2.5,15.5
			C705.4,317.6,708.4,321,713.1,323.2z"/>
		<path d="M771.9,360.8c-2.9-1.8-5.4-3.8-7.6-6c-2.1-2.3-3.7-4.6-4.7-7.1c-0.4-0.8-0.4-1.6-0.2-2.3c0.2-0.7,0.7-1.2,1.2-1.6
			c0.6-0.4,1.2-0.5,1.8-0.3c0.6,0.1,1.2,0.6,1.6,1.5c1,2.4,2.4,4.6,4.1,6.4c1.7,1.8,3.9,3.5,6.4,5.1c3.6,2.2,6.7,3.2,9.3,2.9
			c2.6-0.3,4.5-1.5,5.9-3.8c1.1-1.8,1.3-3.6,0.7-5.4s-2.3-3.9-4.9-6.3l-5.5-5.3c-3.3-3.1-5.3-6.1-6.1-9.1s-0.2-6,1.6-9.1
			c1.5-2.5,3.5-4.4,6-5.5s5.2-1.5,8.2-1.1s6,1.5,9.1,3.3c2.5,1.5,4.7,3.3,6.5,5.4s3.1,4.3,4,6.8c0.3,0.8,0.3,1.5,0.1,2.1
			c-0.3,0.6-0.7,1.1-1.2,1.4c-0.6,0.3-1.2,0.4-1.8,0.2c-0.6-0.2-1.1-0.7-1.6-1.6c-0.9-2.2-2-4.1-3.4-5.7s-3.2-3-5.2-4.3
			c-3.2-1.9-6.2-2.7-9-2.4c-2.8,0.3-4.9,1.7-6.4,4.1c-1.2,1.9-1.5,3.8-1,5.7s1.9,3.9,4.3,6l5.5,5.1c3.6,3.3,5.8,6.4,6.7,9.3
			s0.5,5.8-1.3,8.8c-1.4,2.4-3.3,4.1-5.7,5.1s-5,1.4-8,0.9C778.2,363.9,775.1,362.7,771.9,360.8z"/>
		<path d="M813.5,387.8c-1-0.7-1.5-1.5-1.7-2.5s0.1-2,0.8-2.9s1.5-1.5,2.5-1.7s2,0.1,2.9,0.8c1,0.7,1.5,1.5,1.6,2.5
			s-0.1,1.9-0.8,2.9c-0.7,0.9-1.5,1.5-2.5,1.7C815.5,388.7,814.5,388.5,813.5,387.8z M821,377.2c-1-0.7-1.1-1.7-0.3-3l17.3-26.6
			c0.6-0.9,1.4-1.5,2.2-1.7c0.9-0.2,1.8,0,2.7,0.7c0.9,0.6,1.4,1.4,1.4,2.3s-0.3,1.8-0.9,2.7l-19.6,25
			C822.9,377.7,822,377.9,821,377.2z"/>
	</g>
</g>
<g id="Capa_3" class="st0">
	<path class="st1" d="M287,644.7c-1.1,1.9-2.6,2.8-4.6,2.8c-1.5,0-2.9-0.6-4.2-1.9c-1.3-1.3-2-2.8-2-4.5s1.8-5.8,5.4-12.3
		s7.9-14,12.8-22.7c5.2-8.8,10.7-18.2,16.5-28.3s11-19.6,15.5-28.7c3.1-6,5.7-12,7.8-17.9c2.1-5.9,3.2-11.3,3.2-16.1
		c0-5.1-1.6-9.2-4.8-12.3c-3.2-3.1-9-4.7-17.4-4.7c-10.9,0-22.6,1.2-35.1,3.7s-25.1,5.9-37.9,10.2c-12.8,4.3-25.3,9.3-37.5,15
		s-23.6,11.8-34.3,18.4c-10.7,6.6-20,13.4-28.1,20.4s-14.4,13.9-19,20.8c-4.6,6.9-6.9,13.4-6.9,19.5c0,5.2,1.4,8.7,4.1,10.6
		c2.7,1.9,6.1,2.8,10.1,2.8c3.1,0,6.1-0.3,9.2-1c3.1-0.7,5.9-1.3,8.4-1.8c0.4-0.1,1-0.2,1.8-0.2c1.3,0,2.3,0.3,3,0.8
		c0.5,0.4,0.8,0.9,0.8,1.4s-0.2,1-0.7,1.3s-1,0.6-1.5,0.9c-3.2,1.1-6.5,1.9-9.8,2.4s-6.7,0.8-10,0.8c-4.3,0-8.3-0.6-12.1-1.9
		c-3.8-1.3-6.9-3.4-9.2-6.4c-2.3-3-3.5-7-3.5-12.1c0-6.5,2.3-13.4,7-20.6c4.7-7.2,11.2-14.4,19.5-21.5s18-14.1,29-20.9
		c11-6.8,22.9-13.1,35.7-18.9c12.8-5.8,26-10.9,39.5-15.2c13.5-4.3,27-7.7,40.3-10.2c13.3-2.5,26.1-3.7,38.2-3.7
		c11.6,0,19.9,2,24.9,6s7.5,9.5,7.5,16.6c0,5.3-1.2,11.3-3.7,17.8s-5.4,13.3-8.9,20.2c-2.9,5.6-6,11.4-9.3,17.4s-6.4,11.7-9.5,17
		c-1.2,2.1-2.3,4.1-3.3,5.9s-2,3.5-2.9,5.1c3.9-5.1,8.4-10.8,13.6-17.3s10.7-12.9,16.4-19.3c5.3-5.9,10.8-11.4,16.3-16.6
		c5.5-5.2,10.9-9.5,16.2-13c5.3-3.5,10.2-5.5,14.7-6c0.7-0.1,1.3-0.2,2-0.2s1.3,0,1.8,0c3.2,0,5.8,0.7,7.9,2s3.1,3.4,3.1,6.2
		c0,2.1-0.7,4.7-2.2,7.6c-1.2,2.1-2.8,5.2-4.8,9.1c-2,3.9-4.1,8.2-6.2,12.8s-4.1,8.9-5.8,13c-1.7,4.1-2.9,7.4-3.4,9.9
		c0.5-0.3,1.1-0.6,1.6-1.1s1.1-1,1.6-1.5c1.2-1.1,2.5-2.3,4-3.7s3-2.8,4.6-4.1c3.1-2.7,6-5.3,8.9-7.8s4.8-4.2,5.7-5
		c1.9-1.2,3.7-1.8,5.6-1.8c3.2,0,5.5,1.5,6.8,4.6c1.7,4,2.7,8.3,3,13s0.7,9.2,1.3,13.7c0.6,4.5,2.2,8.5,4.7,12.1
		c1.5,2.3,4.1,3.4,7.8,3.4c3.5,0,7.1-0.9,10.8-2.8c5.5-2.7,11.1-6.1,17-10.2c5.9-4.1,11.5-8.5,17-13l12.6-10.2
		c1.1-0.8,1.9-1.2,2.6-1.2s1.1,0.1,1.2,0.4v0.4c0,0.3-0.1,0.7-0.2,1.3s-0.4,1.2-0.8,1.9c-2,3.3-5.8,7.4-11.4,12.2
		c-5.7,4.7-11.7,9.2-18,13.6c-6.3,4.4-12.5,7.9-18.6,10.6c-8.1,3.6-14.5,5.4-19.2,5.4c-3.5,0-6.2-0.8-8.3-2.5
		c-2.1-1.7-3.7-4-4.9-6.9c-0.5-1.5-1-3-1.4-4.7s-0.8-3.4-1.2-5.3c-0.9-3.9-1.5-7.9-1.8-12.1c-0.3-4.2-1.3-8-3-11.3
		c-0.4-1.1-1.1-1.6-2-1.6c-0.7,0-1.6,0.4-2.8,1.2c-1.7,1.2-4.1,3.2-7.1,5.9s-6.1,5.6-9.2,8.6s-5.9,5.8-8.2,8.3
		c-2.3,2.5-3.8,4.2-4.5,5c-1.2,1.7-2.5,2.6-4,2.6c-0.9,0-1.8-0.5-2.6-1.4c-0.8-0.9-1.2-2.3-1.2-4c0-0.7,0.5-2.4,1.5-5.3
		c1-2.9,2.3-6.4,3.9-10.7s3.4-8.7,5.3-13.4s3.8-9.2,5.6-13.5c1.8-4.3,3.4-8,4.7-10.9c0.4-0.7,0.8-1.6,1.1-2.9
		c0.3-1.3,0.5-2.6,0.5-3.9c0-2.9-1-4.4-3-4.4c-1.2,0-3.1,0.7-5.6,2c-6.5,3.6-13.3,8.6-20.4,14.9c-7.1,6.3-14.1,13.5-21,21.5
		s-13.6,16.3-20.1,25s-12.5,17.1-18,25.2C296,630.7,291.2,638.1,287,644.7z"/>
	<path class="st1" d="M539,617.5c-4,0-7.6-1-10.9-3.1c-3.3-2.1-4.9-5.8-4.9-11.3c0-2,0.3-4.1,0.8-6.3s1.1-4.4,1.8-6.5
		c-2.3,2.3-5.1,4.9-8.4,7.9c-3.3,3-7,5.9-10.9,8.7s-7.9,5.1-11.8,6.9c-3.9,1.8-7.6,2.7-11.1,2.7c-4.3,0-7.7-1.5-10.4-4.6
		c-1.9-2-2.8-4.7-2.8-8c0-3.7,1.2-7.8,3.7-12.1s5.7-8.6,9.8-12.8c4.1-4.2,8.5-7.9,13.2-11.1c4.7-3.2,9.4-5.5,13.9-7
		c6.3-2,11.3-3,15-3c4.3,0,7.3,1.1,9.2,3.3s3.1,5.2,3.6,9.1v0.6c0,1.7-0.6,3.1-1.8,4c-0.5,0.3-0.9,0.4-1.2,0.4c-1.3,0-2-1-2-3
		c0-0.9-0.2-2.2-0.6-3.9c-0.4-1.7-1.7-2.6-4-2.7c-3.1-0.4-6.7,0.2-10.9,1.9s-8.5,4-12.9,7s-8.6,6.3-12.5,9.9
		c-3.9,3.6-7.2,7.2-9.8,10.7c-2.6,3.5-4.1,6.6-4.5,9.3c-0.1,0.4-0.2,0.8-0.2,1.2s0,0.7,0,1c0,2,0.4,3.3,1.3,4s1.9,1,3.1,1
		c2.3,0,4.9-0.7,7.8-2.1c2.9-1.4,5.7-3,8.3-4.7c2.6-1.7,4.4-3.1,5.5-4c4.1-3.5,8.8-7.3,14.1-11.5s10-8.1,14.1-11.7
		c0.7-0.5,1.7-0.8,3-0.8c2,0,3.7,0.5,5,1.6c0.5,0.4,0.8,1.1,0.8,2.2c0,1.6-0.6,3.6-1.8,6c-2.1,4.5-3.9,8.6-5.4,12.2
		c-1.5,3.6-2.2,6.5-2.2,8.8c0,3.2,1.9,4.8,5.6,4.8c2.9,0,7.7-1.1,14.2-3.4c6.8-2.5,13.7-6.1,20.7-10.6s13.3-9.1,18.9-13.6
		c0.7-0.7,1.3-1.2,2-1.7s1.3-0.9,1.8-1.3c0.7-0.5,1.3-1,1.9-1.5c0.6-0.5,1.3-1,2.1-1.7c0.4-0.1,0.9-0.2,1.4-0.2
		c1.1,0,1.6,0.5,1.6,1.4c0,0.8-0.3,1.5-1,2.2c-0.8,1.1-2.7,3-5.8,5.8s-6.8,5.9-11.3,9.4s-9.3,6.8-14.6,9.9
		c-5.3,3.1-10.6,5.6-15.9,7.5c-2,0.7-4.3,1.3-6.9,1.9C544.1,617.2,541.6,617.5,539,617.5z"/>
	<path class="st1" d="M616.2,617.9c-3.1,0-6-0.3-8.8-1s-5.3-1.7-7.6-3c-3.2-2-5.5-4.3-7-7s-2.2-5.5-2.2-8.4c0-4.5,1.4-9.1,4.1-13.6
		c2.7-4.5,6.1-8.7,10.2-12.4c4.1-3.7,8.1-6.5,12.1-8.2c3.9-1.9,7.5-3.2,10.9-4s6.5-1.2,9.3-1.2c3.5,0,6.4,0.6,8.7,1.8s3.5,3,3.5,5.4
		c0,2.3-1.1,4.9-3.3,8s-4.7,5.7-7.5,8s-5.1,3.6-7,4c-0.5,0-0.9-0.2-1.2-0.7s-0.4-0.8-0.4-1.1v-0.4c0-0.9,0.4-1.7,1.2-2.2
		c0.7-0.5,1.7-1.5,3.1-3c1.4-1.5,2.7-3,3.9-4.7s1.8-3.2,1.8-4.5c0-0.5-0.3-1-0.8-1.4s-1.7-0.6-3.6-0.6c-3.3,0-7.2,1-11.5,3.1
		s-8.5,4.8-12.6,8.2s-7.4,7.1-10.1,11c-2.7,3.9-4,7.8-4,11.5c0,3.9,1.9,6.6,5.6,8.3c3.7,1.7,7.9,2.5,12.6,2.5c1.6,0,3.1-0.1,4.6-0.2
		c1.5-0.1,2.9-0.3,4.2-0.6c6.7-1.3,13.5-3.7,20.5-7.2s13.8-7.5,20.3-12s12.4-9.1,17.6-13.6c0.4-0.1,0.9-0.2,1.4-0.2
		c1.1,0,1.6,0.5,1.6,1.4c0,0.8-0.3,1.5-0.8,2c-0.9,1.6-2.8,3.6-5.7,6.1s-6.1,5-9.7,7.7c-3.6,2.7-7.1,5.1-10.5,7.4
		c-3.4,2.3-6.2,4-8.5,5.2c-4.8,2.7-10.3,4.9-16.4,6.8C628.1,617,622.1,617.9,616.2,617.9z"/>
	<path class="st1" d="M735,617.5c-4,0-7.6-1-10.9-3.1c-3.3-2.1-4.9-5.8-4.9-11.3c0-2,0.3-4.1,0.8-6.3s1.1-4.4,1.8-6.5
		c-2.3,2.3-5.1,4.9-8.4,7.9c-3.3,3-7,5.9-10.9,8.7s-7.9,5.1-11.8,6.9c-3.9,1.8-7.6,2.7-11.1,2.7c-4.3,0-7.7-1.5-10.4-4.6
		c-1.9-2-2.8-4.7-2.8-8c0-3.7,1.2-7.8,3.7-12.1s5.7-8.6,9.8-12.8s8.5-7.9,13.2-11.1c4.7-3.2,9.4-5.5,13.9-7c6.3-2,11.3-3,15-3
		c4.3,0,7.3,1.1,9.2,3.3s3.1,5.2,3.6,9.1v0.6c0,1.7-0.6,3.1-1.8,4c-0.5,0.3-0.9,0.4-1.2,0.4c-1.3,0-2-1-2-3c0-0.9-0.2-2.2-0.6-3.9
		c-0.4-1.7-1.7-2.6-4-2.7c-3.1-0.4-6.7,0.2-10.9,1.9s-8.5,4-12.9,7s-8.6,6.3-12.5,9.9c-3.9,3.6-7.2,7.2-9.8,10.7s-4.1,6.6-4.5,9.3
		c-0.1,0.4-0.2,0.8-0.2,1.2s0,0.7,0,1c0,2,0.4,3.3,1.3,4c0.9,0.7,1.9,1,3.1,1c2.3,0,4.9-0.7,7.8-2.1c2.9-1.4,5.7-3,8.3-4.7
		s4.4-3.1,5.5-4c4.1-3.5,8.8-7.3,14.1-11.5s10-8.1,14.1-11.7c0.7-0.5,1.7-0.8,3-0.8c2,0,3.7,0.5,5,1.6c0.5,0.4,0.8,1.1,0.8,2.2
		c0,1.6-0.6,3.6-1.8,6c-2.1,4.5-3.9,8.6-5.4,12.2c-1.5,3.6-2.2,6.5-2.2,8.8c0,3.2,1.9,4.8,5.6,4.8c2.9,0,7.7-1.1,14.2-3.4
		c6.8-2.5,13.7-6.1,20.7-10.6s13.3-9.1,18.9-13.6c0.7-0.7,1.3-1.2,2-1.7s1.3-0.9,1.8-1.3c0.7-0.5,1.3-1,1.9-1.5
		c0.6-0.5,1.3-1,2.1-1.7c0.4-0.1,0.9-0.2,1.4-0.2c1.1,0,1.6,0.5,1.6,1.4c0,0.8-0.3,1.5-1,2.2c-0.8,1.1-2.7,3-5.8,5.8
		s-6.8,5.9-11.3,9.4s-9.3,6.8-14.6,9.9c-5.3,3.1-10.6,5.6-15.9,7.5c-2,0.7-4.3,1.3-6.9,1.9C740.1,617.2,737.5,617.5,735,617.5z"/>
	<path class="st1" d="M329.1,1057.5c-2.7,2-4.9,3-6.6,3c-1.1,0-1.6-0.4-1.6-1.2c0-0.5,0.3-1.3,1-2.3s1.8-2.2,3.4-3.7
		c2.5-2.4,6.2-6.1,11-11.1s10.2-10.8,16.1-17.5c5.9-6.7,11.7-13.7,17.3-21c-9.5,1.3-19,2.6-28.7,3.8s-18.9,1.8-27.7,1.8
		c-1.7,0-3.4,0-5.1-0.1s-3.3-0.2-4.9-0.3c-4-0.3-7.2-1.1-9.5-2.4s-3.5-2.9-3.5-4.6c0-1.3,0.7-2.4,2.2-3.1s3.3-1,5.4-0.9
		c7.5,0.4,15.9,0.6,25.4,0.6c8.3,0,16.9-0.2,25.8-0.5s17.5-0.8,25.8-1.3c6.7-8,11.5-15.2,14.6-21.6s4.6-12,4.6-16.8
		c0-16-17.4-24-52.2-24c-7.7,0-16.7,0.4-27,1.1s-21.2,1.8-32.8,3.3c-11.6,1.5-23.2,3.3-34.8,5.5c-11.6,2.2-22.6,4.8-33.1,7.8
		c-10.5,3-19.8,6.4-28.1,10.1s-14.8,7.9-19.5,12.4s-7.1,9.5-7.1,14.8c0,3.6,2,6.6,6.1,9.1s9.3,4.3,15.6,5.6s12.9,1.9,19.7,1.9
		c1.5,0,2.9,0,4.3-0.1c1.4-0.1,2.7-0.2,3.9-0.3h1.2c1.7,0,3.1,0.3,4,1c0.8,0.8,0.8,1.6,0,2.4c-0.7,0.4-1.5,0.8-2.6,1.2
		c-1.3,0.3-3.5,0.5-6.5,0.7s-5.9,0.3-8.8,0.4c-2.9,0.1-4.8,0.1-5.9,0.1c-4.3,0-8.7-0.5-13.3-1.4s-8.8-2.3-12.7-4.1s-7-4.1-9.4-6.8
		s-3.6-5.9-3.6-9.5c0-6.8,2.2-12.9,6.7-18.4s10.6-10.3,18.5-14.5s16.9-7.9,27.1-11c10.2-3.1,21.1-5.8,32.6-7.9
		c11.5-2.1,23.3-3.8,35.2-5.1c11.9-1.3,23.5-2.2,34.8-2.8s21.6-0.9,31.1-0.9c9.3,0,18,0.5,26.1,1.4s15.2,2.5,21.3,4.8
		c6.1,2.3,10.9,5.5,14.4,9.6s5.2,9.4,5.2,15.8c0,5.2-1.3,10.8-3.9,16.7s-6.1,12-10.5,18.3l28.2-3.2h0.4c1.3,0,2,0.7,2,2.2
		c0,1.3-0.7,2.1-2.2,2.4c-1.2,0.1-3.3,0.4-6.2,0.8c-2.9,0.4-6.2,0.8-9.8,1.3c-3.6,0.5-7,0.9-10.1,1.3s-5.4,0.7-6.9,1
		c-5.9,7.6-12.3,15-19.2,22.2c-6.9,7.2-13.7,13.7-20.3,19.6C339.4,1049,333.8,1053.8,329.1,1057.5z"/>
	<path class="st1" d="M462.7,1037.5c-4.3,0-8.2-0.9-11.9-2.7c-3.7-1.8-5.5-5.2-5.5-10.1c0-5.3,1.8-10.3,5.3-15s7.2-8.7,10.9-12
		l1.6-1.4c-1.7,0.4-3.5,0.6-5.2,0.6c-3.9,0-7.1-0.9-9.8-2.8l-0.6,1c-0.9,1.5-2.6,3.4-5,5.7s-4.7,4.4-7,6.3
		c-5.6,4.7-11.5,9.1-17.8,13.3c-6.3,4.2-12.5,7.7-18.6,10.5s-11.9,4.3-17.4,4.6c-0.4,0-1-0.1-1.7-0.2s-1.3-0.3-1.7-0.6
		c-0.3-0.3-0.4-0.6-0.4-1c0-0.7,0.3-1.1,0.8-1.4s1.7-0.6,3.6-1c4.5-0.9,9.5-2.8,15-5.7c5.5-2.9,11.2-6.3,17.1-10.4
		s11.7-8.4,17.3-12.9c2.3-1.7,4.6-3.7,7-5.9s4.5-4.2,6.4-5.9c-0.7-1.1-1.1-2.2-1.4-3.3s-0.4-2.3-0.4-3.5c0-3.2,0.9-6.4,2.6-9.6
		s3.9-6.1,6.6-8.8s5.5-4.8,8.6-6.5s5.9-2.5,8.6-2.5c1.5,0,2.5,0.3,3.1,1s0.9,1.4,0.9,2.2c0,1.7-0.6,3.1-1.8,4
		c-0.9,0.8-2.4,2.2-4.5,4.3s-4.3,4.4-6.7,7c-2.4,2.6-4.6,5.1-6.5,7.6s-3.2,4.5-3.9,6.1c0.4,0.5,1,1.1,1.8,1.7s2.3,0.9,4.6,0.9
		c1.6,0,3.3-0.3,5-0.8s3.4-1.1,5-1.6s3.1-1.1,4.4-1.8c0.7-0.3,1.3-0.5,1.8-0.6s0.9-0.2,1.2-0.2c1.5,0,3.1,0.5,4.9,1.4
		s2.7,2.4,2.7,4.4c0,0.7-0.1,1.4-0.4,2.2s-0.7,1.5-1.4,2c-2.1,1.6-5,3.8-8.5,6.7s-6.9,5.9-10.1,9.1c-3.3,3.3-5.7,6.3-7.2,8.8
		s-2.2,4.6-2.2,6.2c0,1.7,0.8,3.1,2.3,4.2s4,1.6,7.3,1.6c4.7,0,10.8-1.4,18.4-4.2c1.9-0.7,3.7-1.4,5.4-2.2
		c7.5-3.5,14.6-7.6,21.5-12.5s13.7-10.2,20.5-15.9c0.4-0.1,0.9-0.2,1.4-0.2c0.9,0,1.4,0.5,1.4,1.4c0,0.7-0.3,1.4-0.8,2.2
		c-0.8,1.2-2.7,3.2-5.8,6s-6.8,5.9-11.3,9.4s-9.3,6.8-14.6,10c-5.3,3.2-10.6,5.7-15.9,7.6c-2.3,0.8-5.1,1.5-8.6,2.2
		C469.7,1037.2,466.2,1037.5,462.7,1037.5z"/>
	<path class="st1" d="M578.9,1037.1c-4,0-7.6-1-10.9-3.1c-3.3-2.1-4.9-5.8-4.9-11.3c0-2,0.3-4.1,0.8-6.3s1.1-4.4,1.8-6.5
		c-2.3,2.3-5.1,4.9-8.4,7.9c-3.3,3-7,5.9-10.9,8.7c-3.9,2.8-7.9,5.1-11.8,6.9c-3.9,1.8-7.6,2.7-11.1,2.7c-4.3,0-7.7-1.5-10.4-4.6
		c-1.9-2-2.8-4.7-2.8-8c0-3.7,1.2-7.8,3.7-12.1s5.7-8.6,9.8-12.8s8.5-7.9,13.2-11.1s9.4-5.5,13.9-7c6.3-2,11.3-3,15-3
		c4.3,0,7.3,1.1,9.2,3.3s3.1,5.2,3.6,9.1v0.6c0,1.7-0.6,3.1-1.8,4c-0.5,0.3-0.9,0.4-1.2,0.4c-1.3,0-2-1-2-3c0-0.9-0.2-2.2-0.6-3.9
		c-0.4-1.7-1.7-2.6-4-2.7c-3.1-0.4-6.7,0.2-10.9,1.9s-8.5,4-12.9,7s-8.6,6.3-12.5,9.9s-7.2,7.2-9.8,10.7s-4.1,6.6-4.5,9.3
		c-0.1,0.4-0.2,0.8-0.2,1.2c0,0.4,0,0.7,0,1c0,2,0.4,3.3,1.3,4c0.9,0.7,1.9,1,3.1,1c2.3,0,4.9-0.7,7.8-2.1c2.9-1.4,5.7-3,8.3-4.7
		c2.6-1.7,4.4-3.1,5.5-4c4.1-3.5,8.8-7.3,14.1-11.5s10-8.1,14.1-11.7c0.7-0.5,1.7-0.8,3-0.8c2,0,3.7,0.5,5,1.6
		c0.5,0.4,0.8,1.1,0.8,2.2c0,1.6-0.6,3.6-1.8,6c-2.1,4.5-3.9,8.6-5.4,12.2s-2.2,6.5-2.2,8.8c0,3.2,1.9,4.8,5.6,4.8
		c2.9,0,7.7-1.1,14.2-3.4c6.8-2.5,13.7-6.1,20.7-10.6s13.3-9.1,18.9-13.6c0.7-0.7,1.3-1.2,2-1.7s1.3-0.9,1.8-1.3
		c0.7-0.5,1.3-1,1.9-1.5c0.6-0.5,1.3-1,2.1-1.7c0.4-0.1,0.9-0.2,1.4-0.2c1.1,0,1.6,0.5,1.6,1.4c0,0.8-0.3,1.5-1,2.2
		c-0.8,1.1-2.7,3-5.8,5.8s-6.8,5.9-11.3,9.4s-9.3,6.8-14.6,9.9c-5.3,3.1-10.6,5.6-15.9,7.5c-2,0.7-4.3,1.3-6.9,1.9
		C584,1036.8,581.5,1037.1,578.9,1037.1z"/>
	<path class="st1" d="M621.9,1036.5c-1.1,0-1.8-0.3-2.3-1s-0.7-1.5-0.7-2.4c0-1.5,0.3-2.9,1-4.2c0.7-1.3,1.1-2.2,1.2-2.6
		c1.1-2.1,2.7-5,5-8.7s4.9-7.6,7.9-11.7s6.1-8,9.3-11.7s6.2-6.7,9.1-9.1c2.9-2.4,5.4-3.6,7.5-3.6c0.5,0,1.7,0.4,3.5,1.3
		s3.1,1.6,3.9,2.1c0.9,0.5,1.4,1.3,1.4,2.4c0,1.6-0.7,2.4-2.2,2.4c-0.8,0-1.3,0.1-1.6,0.2c-0.3,0-0.9,0.2-2,0.6
		c-2.3,0.9-5.1,2.9-8.5,5.9s-6.9,6.4-10.4,10.3s-6.7,7.5-9.5,11c4.1-3.6,8.8-7.2,14.1-10.8s10.2-6.3,14.9-8.2
		c1.6-0.7,3.1-1.2,4.5-1.5s2.7-0.5,3.9-0.5c4.1,0,6.9,1.5,8.2,4.6s2.2,6.1,2.6,9.2c0.3,1.2,0.4,2.4,0.5,3.6s0.2,2.3,0.3,3.4
		c0.5,4.9,1.5,8.2,3,9.8s3.3,2.4,5.4,2.4c1.7,0,3.7-0.4,6-1.1s4.7-1.8,7.4-3.1c5.5-2.7,11.1-6,17-10.1s11.5-8.3,16.8-12.7l12.4-10
		c1.1-0.8,1.9-1.2,2.6-1.2c0.7,0,1.1,0.1,1.2,0.4v0.4c0,0.3-0.1,0.7-0.2,1.3c-0.1,0.6-0.4,1.2-0.8,1.9c-0.9,1.3-2.3,3.1-4.2,5.2
		s-4.3,4.3-7.2,6.6c-3.5,2.8-7.4,5.9-11.9,9.3s-9.1,6.6-14,9.6c-4.9,3-9.7,5.5-14.5,7.4s-9.4,2.9-13.8,2.9c-4.4,0-7.6-1.2-9.7-3.7
		c-2.1-2.5-3.5-5.5-4.2-9s-1.4-6.8-2.1-9.9c-0.1-0.9-0.3-1.8-0.6-2.6s-0.5-1.5-0.8-2.2c-1.2-2.9-3-4.4-5.4-4.4
		c-1.6,0-3.5,0.4-5.6,1.3s-4.8,2.4-8,4.5c-4.1,2.8-7.9,5.6-11.2,8.5s-6.3,5.6-9,8.3c-0.8,0.7-1.6,1.5-2.5,2.5s-1.8,2-2.7,2.9
		l-2.4,2.4c-0.5,0.5-1.1,1-1.6,1.4L621.9,1036.5L621.9,1036.5z"/>
</g>
<g>
	<g>
		<g>
			<path d="M288.4,1069.3c-1.1,1.9-2.6,2.8-4.6,2.8c-1.5,0-2.9-0.6-4.2-1.9c-1.3-1.3-2-2.8-2-4.5s1.8-5.8,5.4-12.3s7.9-14,12.8-22.7
				c5.2-8.8,10.7-18.2,16.5-28.3s11-19.6,15.5-28.7c3.1-6,5.7-12,7.8-17.9c2.1-5.9,3.2-11.3,3.2-16.1c0-5.1-1.6-9.2-4.8-12.3
				c-3.2-3.1-9-4.7-17.4-4.7c-10.9,0-22.6,1.2-35.1,3.7s-25.1,5.9-37.9,10.2c-12.8,4.3-25.3,9.3-37.5,15s-23.6,11.8-34.3,18.4
				c-10.7,6.6-20,13.4-28.1,20.4s-14.4,13.9-19,20.8c-4.6,6.9-6.9,13.4-6.9,19.5c0,5.2,1.4,8.7,4.1,10.6s6.1,2.8,10.1,2.8
				c3.1,0,6.1-0.3,9.2-1c3.1-0.7,5.9-1.3,8.4-1.8c0.4-0.1,1-0.2,1.8-0.2c1.3,0,2.3,0.3,3,0.8c0.5,0.4,0.8,0.9,0.8,1.4
				s-0.2,1-0.7,1.3s-1,0.6-1.5,0.9c-3.2,1.1-6.5,1.9-9.8,2.4s-6.7,0.8-10,0.8c-4.3,0-8.3-0.6-12.1-1.9c-3.8-1.3-6.9-3.4-9.2-6.4
				s-3.5-7-3.5-12.1c0-6.5,2.3-13.4,7-20.6c4.7-7.2,11.2-14.4,19.5-21.5s18-14.1,29-20.9c11-6.8,22.9-13.1,35.7-18.9
				c12.8-5.8,26-10.9,39.5-15.2s27-7.7,40.3-10.2s26.1-3.7,38.2-3.7c11.6,0,19.9,2,24.9,6s7.5,9.5,7.5,16.6c0,5.3-1.2,11.3-3.7,17.8
				s-5.4,13.3-8.9,20.2c-2.9,5.6-6,11.4-9.3,17.4s-6.4,11.7-9.5,17c-1.2,2.1-2.3,4.1-3.3,5.9s-2,3.5-2.9,5.1
				c3.9-5.1,8.4-10.8,13.6-17.3s10.7-12.9,16.4-19.3c5.3-5.9,10.8-11.4,16.3-16.6c5.5-5.2,10.9-9.5,16.2-13c5.3-3.5,10.2-5.5,14.7-6
				c0.7-0.1,1.3-0.2,2-0.2s1.3,0,1.8,0c3.2,0,5.8,0.7,7.9,2s3.1,3.4,3.1,6.2c0,2.1-0.7,4.7-2.2,7.6c-1.2,2.1-2.8,5.2-4.8,9.1
				c-2,3.9-4.1,8.2-6.2,12.8s-4.1,8.9-5.8,13c-1.7,4.1-2.9,7.4-3.4,9.9c0.5-0.3,1.1-0.6,1.6-1.1s1.1-1,1.6-1.5
				c1.2-1.1,2.5-2.3,4-3.7s3-2.8,4.6-4.1c3.1-2.7,6-5.3,8.9-7.8s4.8-4.2,5.7-5c1.9-1.2,3.7-1.8,5.6-1.8c3.2,0,5.5,1.5,6.8,4.6
				c1.7,4,2.7,8.3,3,13s0.7,9.2,1.3,13.7c0.6,4.5,2.2,8.5,4.7,12.1c1.5,2.3,4.1,3.4,7.8,3.4c3.5,0,7.1-0.9,10.8-2.8
				c5.5-2.7,11.1-6.1,17-10.2c5.9-4.1,11.5-8.5,17-13l12.6-10.2c1.1-0.8,1.9-1.2,2.6-1.2s1.1,0.1,1.2,0.4v0.4c0,0.3-0.1,0.7-0.2,1.3
				s-0.4,1.2-0.8,1.9c-2,3.3-5.8,7.4-11.4,12.2c-5.7,4.7-11.7,9.2-18,13.6s-12.5,7.9-18.6,10.6c-8.1,3.6-14.5,5.4-19.2,5.4
				c-3.5,0-6.2-0.8-8.3-2.5c-2.1-1.7-3.7-4-4.9-6.9c-0.5-1.5-1-3-1.4-4.7s-0.8-3.4-1.2-5.3c-0.9-3.9-1.5-7.9-1.8-12.1
				c-0.3-4.2-1.3-8-3-11.3c-0.4-1.1-1.1-1.6-2-1.6c-0.7,0-1.6,0.4-2.8,1.2c-1.7,1.2-4.1,3.2-7.1,5.9s-6.1,5.6-9.2,8.6
				s-5.9,5.8-8.2,8.3c-2.3,2.5-3.8,4.2-4.5,5c-1.2,1.7-2.5,2.6-4,2.6c-0.9,0-1.8-0.5-2.6-1.4c-0.8-0.9-1.2-2.3-1.2-4
				c0-0.7,0.5-2.4,1.5-5.3c1-2.9,2.3-6.4,3.9-10.7s3.4-8.7,5.3-13.4s3.8-9.2,5.6-13.5c1.8-4.3,3.4-8,4.7-10.9
				c0.4-0.7,0.8-1.6,1.1-2.9c0.3-1.3,0.5-2.6,0.5-3.9c0-2.9-1-4.4-3-4.4c-1.2,0-3.1,0.7-5.6,2c-6.5,3.6-13.3,8.6-20.4,14.9
				c-7.1,6.3-14.1,13.5-21,21.5s-13.6,16.3-20.1,25c-6.5,8.7-12.5,17.1-18,25.2C297.4,1055.3,292.6,1062.7,288.4,1069.3z"/>
			<path d="M540.4,1042.1c-4,0-7.6-1-10.9-3.1c-3.3-2.1-4.9-5.8-4.9-11.3c0-2,0.3-4.1,0.8-6.3s1.1-4.4,1.8-6.5
				c-2.3,2.3-5.1,4.9-8.4,7.9c-3.3,3-7,5.9-10.9,8.7s-7.9,5.1-11.8,6.9s-7.6,2.7-11.1,2.7c-4.3,0-7.7-1.5-10.4-4.6
				c-1.9-2-2.8-4.7-2.8-8c0-3.7,1.2-7.8,3.7-12.1s5.7-8.6,9.8-12.8c4.1-4.2,8.5-7.9,13.2-11.1c4.7-3.2,9.4-5.5,13.9-7
				c6.3-2,11.3-3,15-3c4.3,0,7.3,1.1,9.2,3.3s3.1,5.2,3.6,9.1v0.6c0,1.7-0.6,3.1-1.8,4c-0.5,0.3-0.9,0.4-1.2,0.4c-1.3,0-2-1-2-3
				c0-0.9-0.2-2.2-0.6-3.9c-0.4-1.7-1.7-2.6-4-2.7c-3.1-0.4-6.7,0.2-10.9,1.9s-8.5,4-12.9,7s-8.6,6.3-12.5,9.9
				c-3.9,3.6-7.2,7.2-9.8,10.7c-2.6,3.5-4.1,6.6-4.5,9.3c-0.1,0.4-0.2,0.8-0.2,1.2s0,0.7,0,1c0,2,0.4,3.3,1.3,4s1.9,1,3.1,1
				c2.3,0,4.9-0.7,7.8-2.1s5.7-3,8.3-4.7c2.6-1.7,4.4-3.1,5.5-4c4.1-3.5,8.8-7.3,14.1-11.5s10-8.1,14.1-11.7c0.7-0.5,1.7-0.8,3-0.8
				c2,0,3.7,0.5,5,1.6c0.5,0.4,0.8,1.1,0.8,2.2c0,1.6-0.6,3.6-1.8,6c-2.1,4.5-3.9,8.6-5.4,12.2c-1.5,3.6-2.2,6.5-2.2,8.8
				c0,3.2,1.9,4.8,5.6,4.8c2.9,0,7.7-1.1,14.2-3.4c6.8-2.5,13.7-6.1,20.7-10.6s13.3-9.1,18.9-13.6c0.7-0.7,1.3-1.2,2-1.7
				s1.3-0.9,1.8-1.3c0.7-0.5,1.3-1,1.9-1.5c0.6-0.5,1.3-1,2.1-1.7c0.4-0.1,0.9-0.2,1.4-0.2c1.1,0,1.6,0.5,1.6,1.4
				c0,0.8-0.3,1.5-1,2.2c-0.8,1.1-2.7,3-5.8,5.8s-6.8,5.9-11.3,9.4s-9.3,6.8-14.6,9.9s-10.6,5.6-15.9,7.5c-2,0.7-4.3,1.3-6.9,1.9
				C545.5,1041.8,543,1042.1,540.4,1042.1z"/>
			<path d="M617.6,1042.5c-3.1,0-6-0.3-8.8-1s-5.3-1.7-7.6-3c-3.2-2-5.5-4.3-7-7s-2.2-5.5-2.2-8.4c0-4.5,1.4-9.1,4.1-13.6
				c2.7-4.5,6.1-8.7,10.2-12.4c4.1-3.7,8.1-6.5,12.1-8.2c3.9-1.9,7.5-3.2,10.9-4s6.5-1.2,9.3-1.2c3.5,0,6.4,0.6,8.7,1.8
				s3.5,3,3.5,5.4c0,2.3-1.1,4.9-3.3,8s-4.7,5.7-7.5,8s-5.1,3.6-7,4c-0.5,0-0.9-0.2-1.2-0.7s-0.4-0.8-0.4-1.1v-0.4
				c0-0.9,0.4-1.7,1.2-2.2c0.7-0.5,1.7-1.5,3.1-3c1.4-1.5,2.7-3,3.9-4.7s1.8-3.2,1.8-4.5c0-0.5-0.3-1-0.8-1.4s-1.7-0.6-3.6-0.6
				c-3.3,0-7.2,1-11.5,3.1s-8.5,4.8-12.6,8.2s-7.4,7.1-10.1,11c-2.7,3.9-4,7.8-4,11.5c0,3.9,1.9,6.6,5.6,8.3
				c3.7,1.7,7.9,2.5,12.6,2.5c1.6,0,3.1-0.1,4.6-0.2s2.9-0.3,4.2-0.6c6.7-1.3,13.5-3.7,20.5-7.2s13.8-7.5,20.3-12
				s12.4-9.1,17.6-13.6c0.4-0.1,0.9-0.2,1.4-0.2c1.1,0,1.6,0.5,1.6,1.4c0,0.8-0.3,1.5-0.8,2c-0.9,1.6-2.8,3.6-5.7,6.1
				s-6.1,5-9.7,7.7c-3.6,2.7-7.1,5.1-10.5,7.4s-6.2,4-8.5,5.2c-4.8,2.7-10.3,4.9-16.4,6.8C629.5,1041.6,623.5,1042.5,617.6,1042.5z"
				/>
			<path d="M736.4,1042.1c-4,0-7.6-1-10.9-3.1c-3.3-2.1-4.9-5.8-4.9-11.3c0-2,0.3-4.1,0.8-6.3s1.1-4.4,1.8-6.5
				c-2.3,2.3-5.1,4.9-8.4,7.9c-3.3,3-7,5.9-10.9,8.7s-7.9,5.1-11.8,6.9c-3.9,1.8-7.6,2.7-11.1,2.7c-4.3,0-7.7-1.5-10.4-4.6
				c-1.9-2-2.8-4.7-2.8-8c0-3.7,1.2-7.8,3.7-12.1s5.7-8.6,9.8-12.8s8.5-7.9,13.2-11.1c4.7-3.2,9.4-5.5,13.9-7c6.3-2,11.3-3,15-3
				c4.3,0,7.3,1.1,9.2,3.3s3.1,5.2,3.6,9.1v0.6c0,1.7-0.6,3.1-1.8,4c-0.5,0.3-0.9,0.4-1.2,0.4c-1.3,0-2-1-2-3c0-0.9-0.2-2.2-0.6-3.9
				c-0.4-1.7-1.7-2.6-4-2.7c-3.1-0.4-6.7,0.2-10.9,1.9s-8.5,4-12.9,7s-8.6,6.3-12.5,9.9c-3.9,3.6-7.2,7.2-9.8,10.7s-4.1,6.6-4.5,9.3
				c-0.1,0.4-0.2,0.8-0.2,1.2s0,0.7,0,1c0,2,0.4,3.3,1.3,4c0.9,0.7,1.9,1,3.1,1c2.3,0,4.9-0.7,7.8-2.1c2.9-1.4,5.7-3,8.3-4.7
				s4.4-3.1,5.5-4c4.1-3.5,8.8-7.3,14.1-11.5s10-8.1,14.1-11.7c0.7-0.5,1.7-0.8,3-0.8c2,0,3.7,0.5,5,1.6c0.5,0.4,0.8,1.1,0.8,2.2
				c0,1.6-0.6,3.6-1.8,6c-2.1,4.5-3.9,8.6-5.4,12.2c-1.5,3.6-2.2,6.5-2.2,8.8c0,3.2,1.9,4.8,5.6,4.8c2.9,0,7.7-1.1,14.2-3.4
				c6.8-2.5,13.7-6.1,20.7-10.6s13.3-9.1,18.9-13.6c0.7-0.7,1.3-1.2,2-1.7s1.3-0.9,1.8-1.3c0.7-0.5,1.3-1,1.9-1.5
				c0.6-0.5,1.3-1,2.1-1.7c0.4-0.1,0.9-0.2,1.4-0.2c1.1,0,1.6,0.5,1.6,1.4c0,0.8-0.3,1.5-1,2.2c-0.8,1.1-2.7,3-5.8,5.8
				s-6.8,5.9-11.3,9.4s-9.3,6.8-14.6,9.9s-10.6,5.6-15.9,7.5c-2,0.7-4.3,1.3-6.9,1.9C741.5,1041.8,738.9,1042.1,736.4,1042.1z"/>
		</g>
		<g>
			<path d="M329.7,649.9c-2.7,2-4.9,3-6.6,3c-1.1,0-1.6-0.4-1.6-1.2c0-0.5,0.3-1.3,1-2.3s1.8-2.2,3.4-3.7c2.5-2.4,6.2-6.1,11-11.1
				s10.2-10.8,16.1-17.5s11.7-13.7,17.3-21c-9.5,1.3-19,2.6-28.7,3.8s-18.9,1.8-27.7,1.8c-1.7,0-3.4,0-5.1-0.1s-3.3-0.2-4.9-0.3
				c-4-0.3-7.2-1.1-9.5-2.4s-3.5-2.9-3.5-4.6c0-1.3,0.7-2.4,2.2-3.1s3.3-1,5.4-0.9c7.5,0.4,15.9,0.6,25.4,0.6
				c8.3,0,16.9-0.2,25.8-0.5s17.5-0.8,25.8-1.3c6.7-8,11.5-15.2,14.6-21.6s4.6-12,4.6-16.8c0-16-17.4-24-52.2-24
				c-7.7,0-16.7,0.4-27,1.1s-21.2,1.8-32.8,3.3c-11.6,1.5-23.2,3.3-34.8,5.5c-11.6,2.2-22.6,4.8-33.1,7.8
				c-10.5,3-19.8,6.4-28.1,10.1s-14.8,7.9-19.5,12.4s-7.1,9.5-7.1,14.8c0,3.6,2,6.6,6.1,9.1s9.3,4.3,15.6,5.6s12.9,1.9,19.7,1.9
				c1.5,0,2.9,0,4.3-0.1c1.4-0.1,2.7-0.2,3.9-0.3h1.2c1.7,0,3.1,0.3,4,1c0.8,0.8,0.8,1.6,0,2.4c-0.7,0.4-1.5,0.8-2.6,1.2
				c-1.3,0.3-3.5,0.5-6.5,0.7s-5.9,0.3-8.8,0.4c-2.9,0.1-4.8,0.1-5.9,0.1c-4.3,0-8.7-0.5-13.3-1.4s-8.8-2.3-12.7-4.1s-7-4.1-9.4-6.8
				s-3.6-5.9-3.6-9.5c0-6.8,2.2-12.9,6.7-18.4s10.6-10.3,18.5-14.5s16.9-7.9,27.1-11c10.2-3.1,21.1-5.8,32.6-7.9
				c11.5-2.1,23.3-3.8,35.2-5.1c11.9-1.3,23.5-2.2,34.8-2.8s21.6-0.9,31.1-0.9c9.3,0,18,0.5,26.1,1.4s15.2,2.5,21.3,4.8
				c6.1,2.3,10.9,5.5,14.4,9.6s5.2,9.4,5.2,15.8c0,5.2-1.3,10.8-3.9,16.7s-6.1,12-10.5,18.3l28.2-3.2h0.4c1.3,0,2,0.7,2,2.2
				c0,1.3-0.7,2.1-2.2,2.4c-1.2,0.1-3.3,0.4-6.2,0.8c-2.9,0.4-6.2,0.8-9.8,1.3c-3.6,0.5-7,0.9-10.1,1.3s-5.4,0.7-6.9,1
				c-5.9,7.6-12.3,15-19.2,22.2c-6.9,7.2-13.7,13.7-20.3,19.6C340,641.4,334.4,646.2,329.7,649.9z"/>
			<path d="M463.3,629.9c-4.3,0-8.2-0.9-11.9-2.7c-3.7-1.8-5.5-5.2-5.5-10.1c0-5.3,1.8-10.3,5.3-15s7.2-8.7,10.9-12l1.6-1.4
				c-1.7,0.4-3.5,0.6-5.2,0.6c-3.9,0-7.1-0.9-9.8-2.8l-0.6,1c-0.9,1.5-2.6,3.4-5,5.7s-4.7,4.4-7,6.3c-5.6,4.7-11.5,9.1-17.8,13.3
				s-12.5,7.7-18.6,10.5s-11.9,4.3-17.4,4.6c-0.4,0-1-0.1-1.7-0.2s-1.3-0.3-1.7-0.6c-0.3-0.3-0.4-0.6-0.4-1c0-0.7,0.3-1.1,0.8-1.4
				s1.7-0.6,3.6-1c4.5-0.9,9.5-2.8,15-5.7s11.2-6.3,17.1-10.4s11.7-8.4,17.3-12.9c2.3-1.7,4.6-3.7,7-5.9s4.5-4.2,6.4-5.9
				c-0.7-1.1-1.1-2.2-1.4-3.3s-0.4-2.3-0.4-3.5c0-3.2,0.9-6.4,2.6-9.6s3.9-6.1,6.6-8.8s5.5-4.8,8.6-6.5s5.9-2.5,8.6-2.5
				c1.5,0,2.5,0.3,3.1,1s0.9,1.4,0.9,2.2c0,1.7-0.6,3.1-1.8,4c-0.9,0.8-2.4,2.2-4.5,4.3s-4.3,4.4-6.7,7c-2.4,2.6-4.6,5.1-6.5,7.6
				s-3.2,4.5-3.9,6.1c0.4,0.5,1,1.1,1.8,1.7s2.3,0.9,4.6,0.9c1.6,0,3.3-0.3,5-0.8s3.4-1.1,5-1.6s3.1-1.1,4.4-1.8
				c0.7-0.3,1.3-0.5,1.8-0.6s0.9-0.2,1.2-0.2c1.5,0,3.1,0.5,4.9,1.4s2.7,2.4,2.7,4.4c0,0.7-0.1,1.4-0.4,2.2s-0.7,1.5-1.4,2
				c-2.1,1.6-5,3.8-8.5,6.7s-6.9,5.9-10.1,9.1c-3.3,3.3-5.7,6.3-7.2,8.8s-2.2,4.6-2.2,6.2c0,1.7,0.8,3.1,2.3,4.2s4,1.6,7.3,1.6
				c4.7,0,10.8-1.4,18.4-4.2c1.9-0.7,3.7-1.4,5.4-2.2c7.5-3.5,14.6-7.6,21.5-12.5s13.7-10.2,20.5-15.9c0.4-0.1,0.9-0.2,1.4-0.2
				c0.9,0,1.4,0.5,1.4,1.4c0,0.7-0.3,1.4-0.8,2.2c-0.8,1.2-2.7,3.2-5.8,6s-6.8,5.9-11.3,9.4s-9.3,6.8-14.6,10
				c-5.3,3.2-10.6,5.7-15.9,7.6c-2.3,0.8-5.1,1.5-8.6,2.2C470.3,629.6,466.8,629.9,463.3,629.9z"/>
			<path d="M579.5,629.5c-4,0-7.6-1-10.9-3.1c-3.3-2.1-4.9-5.8-4.9-11.3c0-2,0.3-4.1,0.8-6.3s1.1-4.4,1.8-6.5
				c-2.3,2.3-5.1,4.9-8.4,7.9c-3.3,3-7,5.9-10.9,8.7s-7.9,5.1-11.8,6.9c-3.9,1.8-7.6,2.7-11.1,2.7c-4.3,0-7.7-1.5-10.4-4.6
				c-1.9-2-2.8-4.7-2.8-8c0-3.7,1.2-7.8,3.7-12.1s5.7-8.6,9.8-12.8s8.5-7.9,13.2-11.1s9.4-5.5,13.9-7c6.3-2,11.3-3,15-3
				c4.3,0,7.3,1.1,9.2,3.3s3.1,5.2,3.6,9.1v0.6c0,1.7-0.6,3.1-1.8,4c-0.5,0.3-0.9,0.4-1.2,0.4c-1.3,0-2-1-2-3c0-0.9-0.2-2.2-0.6-3.9
				c-0.4-1.7-1.7-2.6-4-2.7c-3.1-0.4-6.7,0.2-10.9,1.9s-8.5,4-12.9,7s-8.6,6.3-12.5,9.9s-7.2,7.2-9.8,10.7s-4.1,6.6-4.5,9.3
				c-0.1,0.4-0.2,0.8-0.2,1.2s0,0.7,0,1c0,2,0.4,3.3,1.3,4c0.9,0.7,1.9,1,3.1,1c2.3,0,4.9-0.7,7.8-2.1c2.9-1.4,5.7-3,8.3-4.7
				s4.4-3.1,5.5-4c4.1-3.5,8.8-7.3,14.1-11.5s10-8.1,14.1-11.7c0.7-0.5,1.7-0.8,3-0.8c2,0,3.7,0.5,5,1.6c0.5,0.4,0.8,1.1,0.8,2.2
				c0,1.6-0.6,3.6-1.8,6c-2.1,4.5-3.9,8.6-5.4,12.2s-2.2,6.5-2.2,8.8c0,3.2,1.9,4.8,5.6,4.8c2.9,0,7.7-1.1,14.2-3.4
				c6.8-2.5,13.7-6.1,20.7-10.6s13.3-9.1,18.9-13.6c0.7-0.7,1.3-1.2,2-1.7s1.3-0.9,1.8-1.3c0.7-0.5,1.3-1,1.9-1.5
				c0.6-0.5,1.3-1,2.1-1.7c0.4-0.1,0.9-0.2,1.4-0.2c1.1,0,1.6,0.5,1.6,1.4c0,0.8-0.3,1.5-1,2.2c-0.8,1.1-2.7,3-5.8,5.8
				s-6.8,5.9-11.3,9.4s-9.3,6.8-14.6,9.9s-10.6,5.6-15.9,7.5c-2,0.7-4.3,1.3-6.9,1.9C584.6,629.2,582.1,629.5,579.5,629.5z"/>
			<path d="M622.5,628.9c-1.1,0-1.8-0.3-2.3-1s-0.7-1.5-0.7-2.4c0-1.5,0.3-2.9,1-4.2s1.1-2.2,1.2-2.6c1.1-2.1,2.7-5,5-8.7
				s4.9-7.6,7.9-11.7s6.1-8,9.3-11.7s6.2-6.7,9.1-9.1c2.9-2.4,5.4-3.6,7.5-3.6c0.5,0,1.7,0.4,3.5,1.3s3.1,1.6,3.9,2.1
				c0.9,0.5,1.4,1.3,1.4,2.4c0,1.6-0.7,2.4-2.2,2.4c-0.8,0-1.3,0.1-1.6,0.2c-0.3,0-0.9,0.2-2,0.6c-2.3,0.9-5.1,2.9-8.5,5.9
				s-6.9,6.4-10.4,10.3s-6.7,7.5-9.5,11c4.1-3.6,8.8-7.2,14.1-10.8s10.2-6.3,14.9-8.2c1.6-0.7,3.1-1.2,4.5-1.5s2.7-0.5,3.9-0.5
				c4.1,0,6.9,1.5,8.2,4.6s2.2,6.1,2.6,9.2c0.3,1.2,0.4,2.4,0.5,3.6s0.2,2.3,0.3,3.4c0.5,4.9,1.5,8.2,3,9.8s3.3,2.4,5.4,2.4
				c1.7,0,3.7-0.4,6-1.1s4.7-1.8,7.4-3.1c5.5-2.7,11.1-6,17-10.1s11.5-8.3,16.8-12.7l12.4-10c1.1-0.8,1.9-1.2,2.6-1.2
				c0.7,0,1.1,0.1,1.2,0.4v0.4c0,0.3-0.1,0.7-0.2,1.3c-0.1,0.6-0.4,1.2-0.8,1.9c-0.9,1.3-2.3,3.1-4.2,5.2s-4.3,4.3-7.2,6.6
				c-3.5,2.8-7.4,5.9-11.9,9.3s-9.1,6.6-14,9.6s-9.7,5.5-14.5,7.4s-9.4,2.9-13.8,2.9c-4.4,0-7.6-1.2-9.7-3.7c-2.1-2.5-3.5-5.5-4.2-9
				s-1.4-6.8-2.1-9.9c-0.1-0.9-0.3-1.8-0.6-2.6s-0.5-1.5-0.8-2.2c-1.2-2.9-3-4.4-5.4-4.4c-1.6,0-3.5,0.4-5.6,1.3s-4.8,2.4-8,4.5
				c-4.1,2.8-7.9,5.6-11.2,8.5s-6.3,5.6-9,8.3c-0.8,0.7-1.6,1.5-2.5,2.5s-1.8,2-2.7,2.9l-2.4,2.4c-0.5,0.5-1.1,1-1.6,1.4
				L622.5,628.9L622.5,628.9z"/>
		</g>
	</g>
</g>
</svg>
