<?xml version="1.0" encoding="utf-8"?>
<!-- Generator: Adobe Illustrator 23.0.0, SVG Export Plug-In . SVG Version: 6.00 Build 0)  -->
<svg version="1.1" id="Capa_1" xmlns="http://www.w3.org/2000/svg" xmlns:xlink="http://www.w3.org/1999/xlink" x="0px" y="0px"
	 viewBox="0 0 1645.5 565.3" style="enable-background:new 0 0 1645.5 565.3;" xml:space="preserve">
<g>
	<path d="M404.5,167.4c-1.2,0-2.1-0.4-2.8-1.1c-0.7-0.7-1.1-1.7-1.1-2.8c0-1.2,0.4-2.1,1.1-2.8c0.7-0.7,1.6-1.1,2.8-1.1
		c1.2,0,2.1,0.4,2.8,1.1c0.7,0.7,1,1.7,1,2.8c0,1.1-0.3,2.1-1,2.8C406.6,167.1,405.6,167.4,404.5,167.4z M404.5,207.5
		c-1.1,0-2-0.3-2.6-1c-0.6-0.7-0.9-1.6-0.8-2.7l1.4-29.1c0.1-1.5,0.8-2.2,2-2.2c1.2,0,1.8,0.7,1.9,2.2l1.3,29.1c0,1.1-0.2,2-0.8,2.7
		C406.4,207.2,405.5,207.5,404.5,207.5z"/>
	<path d="M442.6,194.8c-1.8,0-2.8-1-2.8-2.9v-45c0-2,0.8-3,2.5-3c0.7,0,1.2,0.1,1.6,0.4c0.4,0.3,0.8,0.7,1.3,1.4l29.1,38.8v-37.8
		c0-1.9,0.9-2.8,2.8-2.8c1.7,0,2.6,0.9,2.6,2.8V192c0,1.9-0.8,2.8-2.3,2.8c-0.7,0-1.3-0.1-1.7-0.4c-0.4-0.3-0.9-0.7-1.3-1.3
		l-29.1-39v37.8C445.3,193.8,444.4,194.8,442.6,194.8z"/>
	<path d="M534.3,194.9c-4.6,0-8.6-1-12.1-3.1c-3.4-2.1-6.1-5.1-7.9-8.9c-1.9-3.8-2.8-8.3-2.8-13.6c0-5.2,0.9-9.8,2.8-13.6
		c1.8-3.8,4.5-6.8,7.9-8.8c3.4-2.1,7.5-3.1,12.1-3.1c4.7,0,8.8,1,12.2,3.1c3.4,2.1,6.1,5,7.9,8.8c1.9,3.8,2.8,8.3,2.8,13.5
		c0,5.2-0.9,9.8-2.8,13.6c-1.9,3.8-4.5,6.8-8,8.9C543,193.9,539,194.9,534.3,194.9z M534.3,189.8c5.3,0,9.5-1.8,12.4-5.4
		c2.9-3.6,4.4-8.6,4.4-15.1c0-6.5-1.5-11.5-4.4-15c-2.9-3.6-7-5.3-12.4-5.3c-5.2,0-9.3,1.8-12.2,5.3c-2.9,3.6-4.4,8.6-4.4,15
		c0,6.4,1.5,11.4,4.4,15C525,188,529.1,189.8,534.3,189.8z"/>
	<path d="M605,194.9c-3.4,0-6.6-0.4-9.6-1.2c-3-0.8-5.6-2-7.7-3.6c-0.8-0.5-1.2-1.1-1.3-1.8c-0.1-0.7-0.1-1.4,0.2-2
		c0.3-0.6,0.8-1,1.4-1.2c0.6-0.2,1.3-0.1,2.1,0.5c2.1,1.6,4.4,2.7,6.8,3.3s5.1,1,8.1,1c4.2,0,7.4-0.8,9.4-2.4
		c2.1-1.6,3.1-3.7,3.1-6.3c0-2.1-0.7-3.7-2.2-5c-1.5-1.2-4-2.2-7.5-2.9l-7.4-1.5c-4.4-0.9-7.7-2.5-9.9-4.6c-2.2-2.1-3.3-5-3.3-8.6
		c0-3,0.8-5.6,2.3-7.8c1.5-2.2,3.7-3.9,6.4-5.2c2.7-1.2,5.9-1.8,9.5-1.8c3,0,5.7,0.4,8.3,1.2c2.6,0.8,4.9,2.1,7,3.7
		c0.7,0.5,1,1.1,1.2,1.8c0.1,0.7,0,1.3-0.3,1.9c-0.3,0.6-0.8,0.9-1.4,1.1c-0.6,0.2-1.3,0-2.2-0.5c-1.9-1.5-3.9-2.5-5.9-3.1
		c-2.1-0.6-4.3-0.9-6.7-0.9c-3.7,0-6.7,0.9-8.9,2.6c-2.2,1.7-3.3,4-3.3,6.8c0,2.3,0.7,4.1,2.1,5.4c1.4,1.3,3.7,2.3,6.8,2.9l7.4,1.6
		c4.8,1,8.3,2.5,10.6,4.5c2.3,2,3.4,4.7,3.4,8.2c0,2.8-0.7,5.2-2.2,7.4s-3.6,3.8-6.4,5C612,194.3,608.7,194.9,605,194.9z"/>
	<path d="M714.6,194.9c-4.9,0-9.1-1-12.6-3.1c-3.5-2.1-6.2-5-8-8.8c-1.9-3.8-2.8-8.4-2.8-13.7c0-5.2,0.9-9.8,2.8-13.6
		c1.9-3.8,4.5-6.8,8-8.8c3.5-2.1,7.7-3.1,12.6-3.1c2.9,0,5.7,0.4,8.3,1.3c2.6,0.8,4.9,2.1,6.9,3.6c0.8,0.6,1.3,1.2,1.4,2
		c0.1,0.8,0,1.4-0.4,2c-0.4,0.6-0.9,1-1.6,1.1c-0.7,0.2-1.5-0.1-2.3-0.7c-3.3-2.7-7.4-4-12.2-4c-5.6,0-9.9,1.8-12.9,5.3
		c-3,3.5-4.5,8.5-4.5,14.9c0,6.5,1.5,11.5,4.5,15c3,3.5,7.3,5.3,12.9,5.3c4.8,0,8.9-1.4,12.3-4.1c0.8-0.6,1.6-0.8,2.3-0.6
		c0.7,0.1,1.2,0.5,1.6,1.1c0.4,0.6,0.5,1.2,0.4,1.9c-0.1,0.7-0.5,1.3-1.2,1.9c-2,1.7-4.4,3-7,3.9
		C720.4,194.5,717.6,194.9,714.6,194.9z"/>
	<path d="M759.5,194.8c-1.1,0-1.9-0.4-2.3-1.1s-0.4-1.7,0.1-2.8l19.5-44.3c0.8-1.7,1.9-2.6,3.5-2.6c0.7,0,1.4,0.2,1.9,0.6
		c0.6,0.4,1.1,1.1,1.5,2l19.5,44.3c0.5,1.1,0.6,2.1,0.2,2.8c-0.4,0.8-1.1,1.1-2.3,1.1c-0.8,0-1.5-0.2-2.1-0.7
		c-0.5-0.4-0.9-1.1-1.3-1.9l-4.6-10.6h-26l-4.5,10.6C761.9,193.9,760.9,194.8,759.5,194.8z M780.2,151.2l-10.8,25.5h21.8l-10.8-25.5
		H780.2z"/>
	<path d="M849.1,194.9c-3.4,0-6.6-0.4-9.6-1.2c-3-0.8-5.6-2-7.7-3.6c-0.8-0.5-1.2-1.1-1.3-1.8c-0.1-0.7-0.1-1.4,0.2-2
		c0.3-0.6,0.8-1,1.4-1.2c0.6-0.2,1.3-0.1,2.1,0.5c2.1,1.6,4.4,2.7,6.8,3.3c2.4,0.7,5.1,1,8.1,1c4.2,0,7.4-0.8,9.4-2.4
		c2.1-1.6,3.1-3.7,3.1-6.3c0-2.1-0.7-3.7-2.2-5c-1.5-1.2-4-2.2-7.5-2.9l-7.4-1.5c-4.4-0.9-7.7-2.5-9.9-4.6c-2.2-2.1-3.3-5-3.3-8.6
		c0-3,0.8-5.6,2.3-7.8c1.5-2.2,3.7-3.9,6.4-5.2c2.7-1.2,5.9-1.8,9.5-1.8c3,0,5.7,0.4,8.3,1.2c2.6,0.8,4.9,2.1,7,3.7
		c0.7,0.5,1,1.1,1.2,1.8c0.1,0.7,0,1.3-0.3,1.9c-0.3,0.6-0.8,0.9-1.4,1.1c-0.6,0.2-1.3,0-2.2-0.5c-1.9-1.5-3.9-2.5-5.9-3.1
		c-2.1-0.6-4.3-0.9-6.7-0.9c-3.7,0-6.7,0.9-8.9,2.6c-2.2,1.7-3.3,4-3.3,6.8c0,2.3,0.7,4.1,2.1,5.4c1.4,1.3,3.7,2.3,6.8,2.9l7.4,1.6
		c4.8,1,8.3,2.5,10.6,4.5s3.4,4.7,3.4,8.2c0,2.8-0.7,5.2-2.2,7.4s-3.6,3.8-6.4,5C856.1,194.3,852.8,194.9,849.1,194.9z"/>
	<path d="M896.4,194.8c-1.1,0-1.9-0.4-2.3-1.1s-0.4-1.7,0.1-2.8l19.5-44.3c0.8-1.7,1.9-2.6,3.5-2.6c0.7,0,1.4,0.2,1.9,0.6
		c0.6,0.4,1.1,1.1,1.5,2l19.5,44.3c0.5,1.1,0.6,2.1,0.2,2.8c-0.4,0.8-1.1,1.1-2.3,1.1c-0.8,0-1.5-0.2-2.1-0.7
		c-0.5-0.4-0.9-1.1-1.3-1.9l-4.6-10.6h-26l-4.5,10.6C898.9,193.9,897.8,194.8,896.4,194.8z M917.1,151.2l-10.8,25.5h21.8l-10.8-25.5
		H917.1z"/>
	<path d="M973.1,194.8c-1.8,0-2.7-0.9-2.7-2.8v-45.2c0-1.9,0.9-2.8,2.7-2.8c0.8,0,1.4,0.2,1.8,0.5s0.9,0.8,1.2,1.5l18.3,34.5
		l18.2-34.5c0.4-0.7,0.8-1.2,1.2-1.5c0.4-0.3,1-0.5,1.8-0.5c1.7,0,2.6,0.9,2.6,2.8V192c0,1.9-0.9,2.8-2.7,2.8s-2.7-0.9-2.7-2.8
		v-36.6l-16,30.1c-0.3,0.6-0.7,1-1,1.3c-0.4,0.3-0.9,0.4-1.5,0.4c-0.7,0-1.2-0.1-1.6-0.4c-0.4-0.3-0.7-0.7-1-1.3l-16.2-30V192
		C975.7,193.8,974.9,194.8,973.1,194.8z"/>
	<path d="M1072.9,194.9c-4.6,0-8.6-1-12.1-3.1c-3.4-2.1-6.1-5.1-7.9-8.9c-1.9-3.8-2.8-8.3-2.8-13.6c0-5.2,0.9-9.8,2.8-13.6
		s4.5-6.8,7.9-8.8c3.4-2.1,7.5-3.1,12.1-3.1c4.7,0,8.8,1,12.2,3.1c3.4,2.1,6.1,5,7.9,8.8c1.9,3.8,2.8,8.3,2.8,13.5
		c0,5.2-0.9,9.8-2.8,13.6c-1.9,3.8-4.5,6.8-8,8.9C1081.6,193.9,1077.6,194.9,1072.9,194.9z M1072.9,189.8c5.3,0,9.5-1.8,12.4-5.4
		c2.9-3.6,4.4-8.6,4.4-15.1c0-6.5-1.5-11.5-4.4-15c-2.9-3.6-7-5.3-12.4-5.3c-5.2,0-9.3,1.8-12.2,5.3c-2.9,3.6-4.4,8.6-4.4,15
		c0,6.4,1.5,11.4,4.4,15S1067.7,189.8,1072.9,189.8z"/>
	<path d="M1143.6,194.9c-3.4,0-6.6-0.4-9.6-1.2c-3-0.8-5.6-2-7.7-3.6c-0.8-0.5-1.2-1.1-1.3-1.8c-0.1-0.7-0.1-1.4,0.2-2
		c0.3-0.6,0.8-1,1.4-1.2c0.6-0.2,1.3-0.1,2.1,0.5c2.1,1.6,4.4,2.7,6.8,3.3c2.4,0.7,5.1,1,8.1,1c4.2,0,7.4-0.8,9.4-2.4
		c2.1-1.6,3.1-3.7,3.1-6.3c0-2.1-0.7-3.7-2.2-5c-1.5-1.2-4-2.2-7.5-2.9l-7.4-1.5c-4.4-0.9-7.7-2.5-9.9-4.6c-2.2-2.1-3.3-5-3.3-8.6
		c0-3,0.8-5.6,2.3-7.8c1.5-2.2,3.7-3.9,6.4-5.2c2.7-1.2,5.9-1.8,9.5-1.8c3,0,5.7,0.4,8.3,1.2c2.6,0.8,4.9,2.1,7,3.7
		c0.7,0.5,1,1.1,1.2,1.8c0.1,0.7,0,1.3-0.3,1.9c-0.3,0.6-0.8,0.9-1.4,1.1c-0.6,0.2-1.3,0-2.2-0.5c-1.9-1.5-3.9-2.5-5.9-3.1
		c-2.1-0.6-4.3-0.9-6.7-0.9c-3.7,0-6.7,0.9-8.9,2.6c-2.2,1.7-3.3,4-3.3,6.8c0,2.3,0.7,4.1,2.1,5.4c1.4,1.3,3.7,2.3,6.8,2.9l7.4,1.6
		c4.8,1,8.3,2.5,10.6,4.5s3.4,4.7,3.4,8.2c0,2.8-0.7,5.2-2.2,7.4s-3.6,3.8-6.4,5C1150.6,194.3,1147.3,194.9,1143.6,194.9z"/>
	<path d="M1194.1,194.6c-1.2,0-2.1-0.4-2.8-1.1c-0.7-0.7-1.1-1.7-1.1-2.8s0.4-2.1,1.1-2.8c0.7-0.7,1.7-1.1,2.8-1.1s2.1,0.4,2.8,1.1
		c0.7,0.7,1,1.7,1,2.8s-0.3,2.1-1,2.8C1196.3,194.2,1195.3,194.6,1194.1,194.6z M1194.1,181.6c-1.2,0-1.9-0.8-2-2.3l-1.4-31.7
		c0-1.1,0.2-2,0.8-2.7c0.6-0.7,1.4-1,2.6-1c1.1,0,1.9,0.3,2.5,1c0.6,0.7,0.8,1.6,0.8,2.7l-1.4,31.7
		C1195.9,180.9,1195.3,181.6,1194.1,181.6z"/>
	<path d="M207.4,446c-3,2.3-5.5,3.4-7.4,3.4c-1.2,0-1.8-0.4-1.8-1.4c0-0.6,0.4-1.5,1.1-2.6c0.8-1.1,2-2.5,3.8-4.2
		c2.9-2.7,7-6.9,12.4-12.5c5.4-5.6,11.5-12.2,18.2-19.7c6.7-7.5,13.2-15.4,19.5-23.7c-10.7,1.5-21.5,2.9-32.4,4.3
		c-10.9,1.4-21.3,2-31.2,2c-2,0-3.9,0-5.8-0.1c-1.9-0.1-3.7-0.2-5.5-0.3c-4.5-0.3-8.1-1.2-10.7-2.7c-2.6-1.5-3.9-3.2-3.9-5.2
		c0-1.5,0.8-2.7,2.5-3.5c1.7-0.8,3.7-1.2,6.1-1c8.4,0.5,18,0.7,28.6,0.7c9.3,0,19-0.2,29.1-0.6c10.1-0.4,19.8-0.9,29.1-1.5
		c7.5-9,13-17.1,16.5-24.4c3.5-7.2,5.2-13.5,5.2-18.9c0-18-19.6-27.1-58.9-27.1c-8.7,0-18.9,0.4-30.4,1.2c-11.6,0.8-23.9,2.1-37,3.7
		c-13.1,1.7-26.2,3.7-39.2,6.2c-13.1,2.5-25.5,5.4-37.3,8.8c-11.8,3.4-22.4,7.2-31.7,11.4c-9.3,4.2-16.7,8.9-22,14
		c-5.3,5.1-8,10.7-8,16.7c0,4.1,2.3,7.5,6.9,10.3c4.6,2.8,10.4,4.9,17.6,6.3c7.1,1.4,14.5,2.1,22.2,2.1c1.7,0,3.3,0,4.8-0.1
		c1.6-0.1,3-0.2,4.4-0.3h1.4c2,0,3.5,0.4,4.5,1.1c0.9,0.9,0.9,1.8,0,2.7c-0.8,0.5-1.7,0.9-2.9,1.4c-1.5,0.3-3.9,0.6-7.3,0.8
		s-6.7,0.4-9.9,0.5c-3.2,0.1-5.5,0.1-6.7,0.1c-4.8,0-9.8-0.5-15-1.6c-5.2-1.1-10-2.6-14.3-4.6c-4.4-2-7.9-4.6-10.6-7.7
		c-2.7-3.1-4.1-6.7-4.1-10.7c0-7.7,2.5-14.6,7.6-20.7c5-6.2,12-11.6,20.9-16.4c8.9-4.7,19.1-8.9,30.6-12.4
		c11.5-3.5,23.8-6.5,36.8-8.9c13-2.4,26.2-4.3,39.7-5.8c13.5-1.4,26.5-2.5,39.2-3.2c12.7-0.7,24.4-1,35.1-1
		c10.5,0,20.3,0.5,29.4,1.6c9.1,1.1,17.1,2.9,24,5.4c6.9,2.6,12.3,6.2,16.2,10.8c3.9,4.7,5.9,10.6,5.9,17.8c0,5.9-1.5,12.1-4.4,18.8
		c-2.9,6.7-6.9,13.6-11.8,20.6l31.8-3.6h0.5c1.5,0,2.3,0.8,2.3,2.5c0,1.5-0.8,2.4-2.5,2.7c-1.4,0.2-3.7,0.5-7,0.9
		c-3.3,0.5-7,0.9-11.1,1.5c-4.1,0.5-7.9,1-11.4,1.5c-3.5,0.5-6.1,0.8-7.8,1.1c-6.6,8.6-13.8,16.9-21.7,25
		c-7.8,8.1-15.5,15.5-22.9,22.1C219.1,436.4,212.7,441.8,207.4,446z"/>
	<path d="M358.1,423.5c-4.8,0-9.3-1-13.4-3c-4.1-2-6.2-5.8-6.2-11.4c0-6,2-11.7,6-16.9c4-5.3,8.1-9.8,12.3-13.5l1.8-1.6
		c-2,0.5-3.9,0.7-5.9,0.7c-4.4,0-8-1.1-11.1-3.2l-0.7,1.1c-1.1,1.7-2.9,3.8-5.6,6.4c-2.7,2.6-5.3,5-7.9,7.1
		c-6.3,5.3-13,10.3-20.1,15c-7.1,4.7-14.1,8.7-21,11.8c-6.9,3.2-13.5,4.9-19.6,5.2c-0.5,0-1.1-0.1-1.9-0.2c-0.8-0.2-1.5-0.4-1.9-0.7
		c-0.3-0.3-0.5-0.7-0.5-1.1c0-0.8,0.3-1.3,0.9-1.6c0.6-0.3,2-0.7,4.1-1.1c5.1-1.1,10.8-3.2,16.9-6.4c6.2-3.2,12.6-7.1,19.3-11.7
		c6.7-4.6,13.2-9.4,19.5-14.5c2.6-2,5.2-4.2,7.9-6.7c2.7-2.5,5.1-4.7,7.2-6.7c-0.8-1.2-1.3-2.4-1.6-3.7c-0.3-1.3-0.5-2.6-0.5-3.9
		c0-3.6,1-7.2,2.9-10.8c2-3.6,4.4-6.9,7.4-9.9c3-3,6.2-5.4,9.7-7.3c3.5-1.9,6.7-2.8,9.7-2.8c1.7,0,2.8,0.4,3.5,1.1
		c0.7,0.8,1,1.6,1,2.5c0,2-0.7,3.5-2,4.5c-1.1,0.9-2.7,2.5-5.1,4.9c-2.3,2.3-4.8,5-7.6,7.9s-5.2,5.8-7.3,8.6
		c-2.2,2.8-3.6,5.1-4.4,6.9c0.5,0.6,1.1,1.2,2,1.9c0.9,0.7,2.6,1,5.2,1c1.8,0,3.7-0.3,5.6-0.9c2-0.6,3.8-1.2,5.6-1.8
		c1.8-0.6,3.5-1.3,5-2c0.8-0.3,1.4-0.5,2-0.7c0.6-0.1,1.1-0.2,1.4-0.2c1.7,0,3.5,0.5,5.5,1.6c2,1.1,3,2.7,3,5c0,0.8-0.2,1.6-0.5,2.5
		c-0.3,0.9-0.8,1.7-1.6,2.3c-2.4,1.8-5.6,4.3-9.6,7.6c-4,3.2-7.8,6.7-11.4,10.3c-3.8,3.8-6.5,7.1-8.1,9.9c-1.7,2.9-2.5,5.2-2.5,7
		c0,2,0.9,3.5,2.6,4.7c1.7,1.2,4.5,1.8,8.2,1.8c5.3,0,12.2-1.6,20.8-4.7c2.1-0.7,4.1-1.6,6.1-2.5c8.4-3.9,16.5-8.6,24.2-14.1
		c7.7-5.5,15.4-11.5,23.1-17.9c0.5-0.1,1-0.2,1.6-0.2c1.1,0,1.6,0.5,1.6,1.6c0,0.8-0.3,1.6-0.9,2.5c-0.9,1.4-3.1,3.6-6.5,6.8
		c-3.5,3.2-7.7,6.7-12.7,10.6c-5,3.9-10.5,7.7-16.5,11.3c-5.9,3.6-11.9,6.5-17.9,8.6c-2.6,0.9-5.8,1.7-9.7,2.5
		C365.9,423.1,362,423.5,358.1,423.5z"/>
	<path d="M489.1,423c-4.5,0-8.6-1.2-12.3-3.5c-3.7-2.3-5.5-6.6-5.5-12.7c0-2.3,0.3-4.6,0.9-7.1c0.6-2.5,1.3-4.9,2-7.3
		c-2.6,2.6-5.7,5.5-9.5,8.9c-3.8,3.4-7.9,6.7-12.3,9.8c-4.4,3.2-8.9,5.8-13.3,7.8c-4.4,2-8.6,3-12.5,3c-4.8,0-8.7-1.7-11.7-5.2
		c-2.1-2.3-3.2-5.3-3.2-9c0-4.2,1.4-8.8,4.2-13.6c2.8-4.9,6.5-9.7,11.1-14.4c4.6-4.7,9.5-8.9,14.9-12.5c5.3-3.6,10.6-6.2,15.7-7.9
		c7.1-2.3,12.7-3.4,16.9-3.4c4.8,0,8.3,1.2,10.4,3.7c2.1,2.5,3.5,5.9,4.1,10.3v0.7c0,2-0.7,3.5-2,4.5c-0.6,0.3-1.1,0.5-1.4,0.5
		c-1.5,0-2.3-1.1-2.3-3.4c0-1.1-0.2-2.5-0.7-4.4c-0.5-1.9-2-2.9-4.5-3c-3.5-0.5-7.6,0.3-12.3,2.1c-4.7,1.9-9.6,4.5-14.5,7.9
		c-5,3.4-9.7,7.1-14.1,11.2c-4.4,4.1-8.1,8.1-11.1,12.1c-2.9,4-4.6,7.5-5.1,10.5c-0.2,0.4-0.2,0.9-0.2,1.4s0,0.8,0,1.1
		c0,2.3,0.5,3.8,1.5,4.5c1,0.8,2.1,1.1,3.5,1.1c2.6,0,5.5-0.8,8.8-2.4c3.3-1.6,6.4-3.3,9.4-5.3c2.9-2,5-3.5,6.2-4.5
		c4.7-3.9,10-8.2,15.9-13c5.9-4.7,11.2-9.1,15.9-13.2c0.8-0.6,1.9-0.9,3.4-0.9c2.3,0,4.1,0.6,5.6,1.8c0.6,0.4,0.9,1.3,0.9,2.5
		c0,1.8-0.7,4.1-2,6.8c-2.4,5.1-4.4,9.7-6.1,13.8c-1.7,4.1-2.5,7.4-2.5,9.9c0,3.6,2.1,5.4,6.3,5.4c3.3,0,8.6-1.3,16-3.8
		c7.7-2.9,15.4-6.8,23.3-12c7.9-5.1,15-10.2,21.3-15.3c0.8-0.7,1.5-1.4,2.3-1.9c0.8-0.5,1.4-1,2-1.5c0.8-0.6,1.5-1.2,2.1-1.7
		c0.7-0.5,1.5-1.2,2.4-1.9c0.5-0.1,1-0.2,1.6-0.2c1.2,0,1.8,0.5,1.8,1.6c0,0.9-0.4,1.7-1.1,2.5c-0.9,1.2-3.1,3.4-6.5,6.5
		c-3.5,3.2-7.7,6.7-12.7,10.6c-5,3.9-10.5,7.6-16.5,11.2c-5.9,3.5-11.9,6.4-17.9,8.5c-2.3,0.8-4.8,1.5-7.8,2.1S492,423,489.1,423z"
		/>
	<path d="M537.6,422.4c-1.2,0-2.1-0.4-2.6-1.1c-0.5-0.7-0.8-1.7-0.8-2.7c0-1.7,0.4-3.2,1.1-4.7c0.8-1.5,1.2-2.5,1.4-2.9
		c1.2-2.4,3.1-5.7,5.6-9.8c2.6-4.1,5.5-8.5,8.9-13.2c3.4-4.7,6.9-9.1,10.5-13.2c3.6-4.1,7-7.6,10.3-10.3c3.2-2.7,6.1-4.1,8.5-4.1
		c0.6,0,1.9,0.5,3.9,1.5c2,1,3.5,1.8,4.4,2.4c1.1,0.6,1.6,1.5,1.6,2.7c0,1.8-0.8,2.7-2.5,2.7c-0.9,0-1.5,0.1-1.8,0.2
		c-0.3,0-1.1,0.2-2.3,0.7c-2.6,1.1-5.8,3.3-9.6,6.7s-7.7,7.3-11.7,11.6c-4,4.4-7.6,8.5-10.7,12.4c4.7-4.1,10-8.1,15.9-12.2
		c5.9-4.1,11.5-7.1,16.8-9.2c1.8-0.8,3.5-1.3,5.1-1.7c1.6-0.4,3-0.6,4.4-0.6c4.7,0,7.7,1.7,9.2,5.2c1.5,3.5,2.5,6.9,2.9,10.4
		c0.3,1.4,0.5,2.7,0.6,4.1c0.1,1.4,0.2,2.6,0.3,3.8c0.6,5.6,1.7,9.2,3.4,11.1c1.7,1.8,3.7,2.7,6.1,2.7c2,0,4.2-0.4,6.8-1.2
		c2.6-0.8,5.3-2,8.3-3.5c6.2-3,12.6-6.8,19.2-11.4c6.6-4.6,12.9-9.4,18.9-14.3l14-11.3c1.2-0.9,2.2-1.4,2.9-1.4
		c0.8,0,1.2,0.2,1.4,0.5v0.5c0,0.3-0.1,0.8-0.2,1.5c-0.2,0.7-0.5,1.4-0.9,2.1c-1.1,1.5-2.6,3.5-4.7,5.9c-2.1,2.4-4.8,4.9-8.1,7.4
		c-3.9,3.2-8.4,6.7-13.4,10.5c-5,3.8-10.3,7.4-15.8,10.8c-5.5,3.4-10.9,6.2-16.4,8.3c-5.4,2.2-10.6,3.3-15.6,3.3
		c-5,0-8.6-1.4-10.9-4.2c-2.3-2.8-3.9-6.2-4.7-10.1c-0.8-4-1.6-7.7-2.4-11.2c-0.2-1.1-0.4-2-0.7-2.9c-0.3-0.9-0.6-1.7-0.9-2.5
		c-1.4-3.3-3.4-5-6.1-5c-1.8,0-3.9,0.5-6.3,1.5c-2.4,1-5.4,2.7-9,5.1c-4.7,3.2-8.9,6.4-12.6,9.6c-3.8,3.2-7.1,6.4-10.1,9.4
		c-0.9,0.8-1.8,1.7-2.8,2.8c-1,1.1-2,2.2-3,3.3l-2.7,2.7c-0.6,0.6-1.2,1.1-1.8,1.6H537.6z"/>
	<path d="M663.5,532c-4.1,0-8.3-0.6-12.6-1.8c-4.4-1.2-8-3.3-10.9-6.2c-2.9-2.9-4.4-6.8-4.4-11.6c0-0.6,0-1.2,0-1.9
		c0-0.7,0.1-1.3,0.2-1.9c1.2-7.1,4.4-13.8,9.5-20.1c5.1-6.3,11.5-12.2,19.2-17.7c7.7-5.5,16.1-10.5,25.1-15
		c9.1-4.5,18.3-8.5,27.5-12.1c9.2-3.5,18-6.5,26.3-9c8.3-2.5,15.3-4.3,21-5.5c2-0.4,3.9-0.8,5.9-1.1c2-0.3,3.9-0.5,5.9-0.7
		c3-5.7,5.4-11.6,7.3-17.8c1.9-6.2,2.8-11.5,2.8-16c0-3.5-0.6-5.9-1.8-7.4c-1.2,1.1-2.7,2.6-4.5,4.6c-1.8,2-3.8,4.3-5.9,6.7
		c-2.1,2.4-4.4,4.9-7,7.4c-2.6,2.6-5.2,4.9-7.9,7c-3.9,3.3-7.9,6-12.1,8.1c-4.1,2.1-8,3.2-11.6,3.2c-2.4,0-4.6-0.5-6.5-1.4
		c-2-0.9-3.7-2.4-5.2-4.5c-1.7-2.6-2.5-5.3-2.5-8.1c0-4.8,1.8-10.1,5.4-15.8c3.6-5.7,8-11.1,13.1-16c0.5-0.6,1.2-1.4,2.4-2.5
		c1.1-1.1,2.1-1.9,3-2.5c0.1-0.8,0.5-1.7,1-2.8c0.5-1.1,1.3-2.2,2.4-3.3c0.9-1.1,2-2,3.3-2.8c1.3-0.8,2.5-1.2,3.7-1.2
		c0.9,0,1.7,0.2,2.3,0.7c1.4,0.6,2.6,1.4,3.7,2.4c1.1,1,1.7,2.1,1.7,3.3c0,1.4-0.8,2.8-2.3,4.3l-4.7,4.5c-3.9,3.8-7.9,7.7-11.8,11.7
		c-4,4.1-7.4,7.9-10.1,11.6c-2.8,3.7-4.3,6.8-4.6,9.4c-0.2,0.5-0.2,0.9-0.2,1.4s0,0.9,0,1.4c0,2.1,0.4,3.5,1.2,4.3
		c0.8,0.8,1.7,1.1,2.6,1.1c2.3,0,4.9-0.9,7.9-2.7c3-1.8,5.9-3.8,8.7-6c2.8-2.2,4.8-3.8,6.2-4.8c4.2-3.6,8.3-7.3,12.4-11.2
		c4.1-3.8,8-7.6,12-11.4c-0.2-1.4,0.5-2.7,2-4.2c1.5-1.4,3.9-2.1,7.2-2.1c3.3,0,5.7,1.3,7.2,3.8c1.5,2.6,2.3,5.9,2.3,9.9
		c0,4.4-0.8,9.6-2.4,15.7c-1.6,6.1-4,12.7-7.3,20c-0.2,0.3-0.3,0.6-0.5,1c-0.2,0.4-0.4,0.7-0.7,1c1.7,0.1,3.2,0.3,4.6,0.3
		c1.4,0.1,2.9,0.2,4.4,0.3c4.5,0.6,9,1.6,13.5,2.9c4.5,1.4,7.4,3.5,8.6,6.3c0,0.1,0,0.3,0.1,0.3c0.1,0.1,0.1,0.2,0.1,0.3
		c0,0.6-0.2,1-0.5,1.4c-0.3,0.3-0.6,0.6-0.9,0.9c-0.2,0.1-0.5,0.2-1.1,0.2c-0.8,0-1.4-0.4-1.8-1.1c-0.6-1.7-2.7-2.9-6.3-3.8
		c-3.6-0.9-7.7-1.5-12.4-1.8c-2-0.3-3.9-0.5-5.8-0.5c-1.9,0-3.7,0.1-5.5,0.2c-4.7,8.9-10.4,17.9-17.1,27.2
		c-6.8,9.2-14.2,18.1-22.4,26.6c-8.2,8.5-16.9,16.1-26.1,22.9c-9.2,6.8-18.5,12.1-28,16.1C682.2,530,672.8,532,663.5,532z
		 M661,526.1c8.7,0,17.5-2,26.3-5.9c8.8-3.9,17.3-9.2,25.6-15.8c8.3-6.6,16.1-13.9,23.6-22c7.4-8,14.2-16.2,20.3-24.6
		c6.1-8.3,11.2-16.2,15.5-23.6c-1.4,0.1-2.7,0.4-4.2,0.7c-1.4,0.3-2.9,0.6-4.4,0.9c-9.9,2-20.5,5-31.6,9.1
		c-11.1,4.1-22.1,9.1-33,14.8c-10.9,5.7-21.2,12-30.8,18.7c-9.3,6.8-16,13-20.1,18.7c-4.1,5.7-6.1,10.7-6.1,14.9
		c0,4.2,1.7,7.6,5.1,10.1C650.5,524.8,655.1,526.1,661,526.1z"/>
	<path d="M1061.8,453.7c-1.2,2.1-2.9,3.2-5.2,3.2c-1.7,0-3.2-0.7-4.7-2.1c-1.5-1.4-2.3-3.1-2.3-5.1c0-2,2-6.6,6.1-13.9
		c4.1-7.3,8.9-15.8,14.4-25.6c5.9-9.9,12.1-20.6,18.6-31.9c6.5-11.4,12.4-22.1,17.5-32.4c3.5-6.8,6.4-13.5,8.8-20.2
		c2.4-6.7,3.6-12.7,3.6-18.2c0-5.7-1.8-10.3-5.4-13.9c-3.6-3.5-10.1-5.3-19.6-5.3c-12.3,0-25.5,1.4-39.6,4.2
		c-14.1,2.8-28.3,6.6-42.7,11.5c-14.4,4.9-28.5,10.5-42.3,16.9c-13.8,6.4-26.7,13.3-38.7,20.7c-12,7.4-22.6,15.1-31.7,23
		c-9.1,7.9-16.2,15.7-21.4,23.5c-5.2,7.7-7.8,15.1-7.8,22c0,5.9,1.5,9.9,4.6,12c3.1,2.1,6.9,3.2,11.4,3.2c3.5,0,6.9-0.4,10.4-1.1
		c3.5-0.8,6.6-1.4,9.5-2c0.5-0.2,1.1-0.2,2-0.2c1.5,0,2.6,0.3,3.4,0.9c0.6,0.5,0.9,1,0.9,1.6c0,0.6-0.3,1.1-0.8,1.5
		c-0.5,0.4-1.1,0.7-1.7,1c-3.6,1.2-7.3,2.1-11.1,2.7c-3.8,0.6-7.5,0.9-11.3,0.9c-4.8,0-9.4-0.7-13.6-2.1c-4.3-1.4-7.7-3.8-10.4-7.2
		c-2.6-3.4-3.9-7.9-3.9-13.6c0-7.4,2.6-15.1,7.9-23.2c5.3-8.1,12.6-16.2,22-24.2c9.4-8,20.3-15.9,32.7-23.6
		c12.4-7.7,25.8-14.8,40.3-21.3c14.4-6.5,29.3-12.3,44.5-17.1c15.3-4.9,30.4-8.7,45.4-11.5c15-2.8,29.4-4.2,43.1-4.2
		c13.1,0,22.4,2.3,28.1,6.8c5.6,4.5,8.5,10.8,8.5,18.7c0,6-1.4,12.7-4.2,20.1c-2.8,7.4-6.1,15-10,22.8c-3.3,6.3-6.8,12.9-10.5,19.6
		c-3.7,6.8-7.3,13.2-10.7,19.2c-1.4,2.4-2.6,4.6-3.7,6.7c-1.1,2-2.2,3.9-3.3,5.8c4.4-5.7,9.5-12.2,15.3-19.5
		c5.9-7.3,12-14.5,18.5-21.8c6-6.6,12.1-12.9,18.4-18.7c6.2-5.9,12.3-10.7,18.3-14.7c5.9-3.9,11.5-6.2,16.6-6.8
		c0.8-0.1,1.5-0.2,2.3-0.2c0.8,0,1.4,0,2,0c3.6,0,6.6,0.8,8.9,2.3c2.3,1.5,3.5,3.8,3.5,7c0,2.4-0.8,5.3-2.5,8.6
		c-1.4,2.4-3.2,5.8-5.4,10.3c-2.3,4.4-4.6,9.2-7,14.4c-2.4,5.2-4.6,10.1-6.5,14.7c-2,4.6-3.2,8.3-3.8,11.2c0.6-0.3,1.2-0.7,1.8-1.2
		c0.6-0.5,1.2-1.1,1.8-1.7c1.4-1.2,2.9-2.6,4.5-4.2c1.7-1.6,3.4-3.1,5.2-4.6c3.5-3,6.8-5.9,10-8.8c3.2-2.9,5.4-4.7,6.4-5.6
		c2.1-1.4,4.2-2,6.3-2c3.6,0,6.2,1.7,7.7,5.2c2,4.5,3.1,9.4,3.4,14.7c0.3,5.3,0.8,10.4,1.5,15.4c0.7,5,2.4,9.6,5.3,13.6
		c1.7,2.6,4.6,3.8,8.8,3.8c3.9,0,8-1.1,12.2-3.2c6.2-3,12.6-6.8,19.2-11.5c6.6-4.7,13-9.5,19.2-14.7l14.2-11.5
		c1.2-0.9,2.2-1.4,2.9-1.4c0.8,0,1.2,0.2,1.4,0.5v0.5c0,0.3-0.1,0.8-0.2,1.5c-0.2,0.7-0.5,1.4-0.9,2.1c-2.3,3.8-6.5,8.3-12.9,13.8
		c-6.5,5.3-13.2,10.4-20.3,15.3c-7.1,5-14.1,8.9-21,12c-9.2,4.1-16.4,6.1-21.7,6.1c-3.9,0-7-0.9-9.4-2.8c-2.3-1.9-4.2-4.5-5.5-7.8
		c-0.6-1.7-1.1-3.4-1.6-5.3c-0.5-1.9-0.9-3.9-1.4-6c-1.1-4.4-1.7-8.9-2-13.6c-0.3-4.7-1.4-9-3.4-12.7c-0.5-1.2-1.2-1.8-2.3-1.8
		c-0.8,0-1.8,0.5-3.2,1.4c-2,1.4-4.6,3.6-8,6.7c-3.4,3.1-6.8,6.3-10.4,9.7c-3.5,3.4-6.6,6.5-9.2,9.4c-2.6,2.9-4.3,4.7-5.1,5.6
		c-1.4,2-2.9,2.9-4.5,2.9c-1.1,0-2-0.5-2.9-1.6c-0.9-1-1.4-2.6-1.4-4.5c0-0.7,0.6-2.7,1.7-6c1.1-3.2,2.6-7.3,4.4-12.1
		c1.8-4.8,3.8-9.8,6-15.1c2.2-5.3,4.3-10.3,6.3-15.2c2-4.9,3.8-9,5.3-12.3c0.5-0.8,0.9-1.8,1.2-3.3c0.4-1.4,0.6-2.9,0.6-4.4
		c0-3.3-1.1-5-3.4-5c-1.4,0-3.5,0.8-6.3,2.3c-7.4,4.1-15,9.7-23,16.8c-8,7.1-15.9,15.2-23.7,24.2c-7.8,9-15.4,18.4-22.7,28.2
		c-7.3,9.8-14.1,19.2-20.3,28.4C1071.9,437.8,1066.5,446.2,1061.8,453.7z"/>
	<path d="M1346,423c-4.5,0-8.6-1.2-12.3-3.5c-3.7-2.3-5.5-6.6-5.5-12.7c0-2.3,0.3-4.6,0.9-7.1c0.6-2.5,1.3-4.9,2-7.3
		c-2.6,2.6-5.7,5.5-9.5,8.9c-3.8,3.4-7.9,6.7-12.3,9.8c-4.4,3.2-8.9,5.8-13.3,7.8c-4.4,2-8.6,3-12.5,3c-4.8,0-8.7-1.7-11.7-5.2
		c-2.1-2.3-3.2-5.3-3.2-9c0-4.2,1.4-8.8,4.2-13.6c2.8-4.9,6.5-9.7,11.1-14.4c4.6-4.7,9.5-8.9,14.9-12.5c5.3-3.6,10.6-6.2,15.7-7.9
		c7.1-2.3,12.7-3.4,16.9-3.4c4.8,0,8.3,1.2,10.4,3.7c2.1,2.5,3.5,5.9,4.1,10.3v0.7c0,2-0.7,3.5-2,4.5c-0.6,0.3-1.1,0.5-1.4,0.5
		c-1.5,0-2.3-1.1-2.3-3.4c0-1.1-0.2-2.5-0.7-4.4c-0.5-1.9-2-2.9-4.5-3c-3.5-0.5-7.6,0.3-12.3,2.1c-4.7,1.9-9.6,4.5-14.5,7.9
		s-9.7,7.1-14.1,11.2c-4.4,4.1-8.1,8.1-11.1,12.1c-2.9,4-4.6,7.5-5.1,10.5c-0.2,0.4-0.2,0.9-0.2,1.4s0,0.8,0,1.1
		c0,2.3,0.5,3.8,1.5,4.5c1,0.8,2.1,1.1,3.5,1.1c2.6,0,5.5-0.8,8.8-2.4c3.3-1.6,6.4-3.3,9.4-5.3c2.9-2,5-3.5,6.2-4.5
		c4.7-3.9,10-8.2,15.9-13c5.9-4.7,11.2-9.1,15.9-13.2c0.8-0.6,1.9-0.9,3.4-0.9c2.3,0,4.1,0.6,5.6,1.8c0.6,0.4,0.9,1.3,0.9,2.5
		c0,1.8-0.7,4.1-2,6.8c-2.4,5.1-4.4,9.7-6.1,13.8c-1.7,4.1-2.5,7.4-2.5,9.9c0,3.6,2.1,5.4,6.3,5.4c3.3,0,8.6-1.3,16-3.8
		c7.7-2.9,15.4-6.8,23.3-12c7.9-5.1,15-10.2,21.3-15.3c0.8-0.7,1.5-1.4,2.3-1.9c0.8-0.5,1.4-1,2-1.5c0.8-0.6,1.5-1.2,2.1-1.7
		c0.7-0.5,1.5-1.2,2.4-1.9c0.5-0.1,1-0.2,1.6-0.2c1.2,0,1.8,0.5,1.8,1.6c0,0.9-0.4,1.7-1.1,2.5c-0.9,1.2-3.1,3.4-6.5,6.5
		c-3.5,3.2-7.7,6.7-12.7,10.6c-5,3.9-10.5,7.6-16.5,11.2c-5.9,3.5-11.9,6.4-17.9,8.5c-2.3,0.8-4.8,1.5-7.8,2.1
		C1351.7,422.7,1348.8,423,1346,423z"/>
	<path d="M1433.1,423.5c-3.5,0-6.8-0.4-9.9-1.1c-3.2-0.8-6-1.9-8.6-3.4c-3.6-2.3-6.2-4.9-7.9-7.9c-1.7-3-2.5-6.2-2.5-9.5
		c0-5.1,1.5-10.2,4.6-15.3c3.1-5.1,6.9-9.8,11.5-14c4.6-4.2,9.1-7.3,13.6-9.2c4.4-2.1,8.5-3.6,12.3-4.5c3.8-0.9,7.3-1.4,10.5-1.4
		c3.9,0,7.2,0.7,9.8,2c2.6,1.4,3.9,3.4,3.9,6.1c0,2.6-1.2,5.6-3.7,9c-2.5,3.5-5.3,6.5-8.5,9c-3.2,2.6-5.8,4.1-7.9,4.5
		c-0.6,0-1.1-0.3-1.4-0.8c-0.3-0.5-0.5-0.9-0.5-1.2v-0.5c0-1.1,0.5-1.9,1.4-2.5c0.8-0.6,1.9-1.7,3.5-3.4c1.6-1.7,3-3.4,4.4-5.3
		c1.4-1.9,2-3.6,2-5.1c0-0.6-0.3-1.1-0.9-1.6c-0.6-0.5-2-0.7-4.1-0.7c-3.8,0-8.1,1.2-13,3.5c-4.9,2.3-9.6,5.4-14.2,9.2
		c-4.6,3.8-8.4,8-11.4,12.4c-3,4.4-4.5,8.8-4.5,13c0,4.4,2.1,7.5,6.3,9.4c4.2,1.9,8.9,2.8,14.2,2.8c1.8,0,3.5-0.1,5.2-0.2
		c1.7-0.1,3.2-0.4,4.7-0.7c7.5-1.5,15.2-4.2,23.1-8.1c7.9-3.9,15.5-8.4,22.9-13.5c7.4-5.1,14-10.2,19.8-15.3c0.5-0.1,1-0.2,1.6-0.2
		c1.2,0,1.8,0.5,1.8,1.6c0,0.9-0.3,1.7-0.9,2.3c-1.1,1.8-3.2,4.1-6.4,6.9c-3.2,2.8-6.9,5.7-10.9,8.7c-4.1,3-8,5.8-11.8,8.3
		c-3.8,2.6-7,4.5-9.6,5.9c-5.4,3-11.6,5.6-18.5,7.7C1446.4,422.4,1439.7,423.5,1433.1,423.5z"/>
	<path d="M1567,423c-4.5,0-8.6-1.2-12.3-3.5c-3.7-2.3-5.5-6.6-5.5-12.7c0-2.3,0.3-4.6,0.9-7.1c0.6-2.5,1.3-4.9,2-7.3
		c-2.6,2.6-5.7,5.5-9.5,8.9c-3.8,3.4-7.9,6.7-12.3,9.8c-4.4,3.2-8.9,5.8-13.3,7.8c-4.4,2-8.6,3-12.5,3c-4.8,0-8.7-1.7-11.7-5.2
		c-2.1-2.3-3.2-5.3-3.2-9c0-4.2,1.4-8.8,4.2-13.6c2.8-4.9,6.5-9.7,11.1-14.4c4.6-4.7,9.5-8.9,14.9-12.5c5.3-3.6,10.6-6.2,15.7-7.9
		c7.1-2.3,12.7-3.4,16.9-3.4c4.8,0,8.3,1.2,10.4,3.7c2.1,2.5,3.5,5.9,4.1,10.3v0.7c0,2-0.7,3.5-2,4.5c-0.6,0.3-1.1,0.5-1.4,0.5
		c-1.5,0-2.3-1.1-2.3-3.4c0-1.1-0.2-2.5-0.7-4.4c-0.5-1.9-2-2.9-4.5-3c-3.5-0.5-7.6,0.3-12.3,2.1c-4.7,1.9-9.6,4.5-14.5,7.9
		c-5,3.4-9.7,7.1-14.1,11.2c-4.4,4.1-8.1,8.1-11.1,12.1c-2.9,4-4.6,7.5-5.1,10.5c-0.2,0.4-0.2,0.9-0.2,1.4s0,0.8,0,1.1
		c0,2.3,0.5,3.8,1.5,4.5c1,0.8,2.1,1.1,3.5,1.1c2.6,0,5.5-0.8,8.8-2.4c3.3-1.6,6.4-3.3,9.4-5.3c2.9-2,5-3.5,6.2-4.5
		c4.7-3.9,10-8.2,15.9-13c5.9-4.7,11.2-9.1,15.9-13.2c0.8-0.6,1.9-0.9,3.4-0.9c2.3,0,4.1,0.6,5.6,1.8c0.6,0.4,0.9,1.3,0.9,2.5
		c0,1.8-0.7,4.1-2,6.8c-2.4,5.1-4.4,9.7-6.1,13.8c-1.7,4.1-2.5,7.4-2.5,9.9c0,3.6,2.1,5.4,6.3,5.4c3.3,0,8.6-1.3,16-3.8
		c7.7-2.9,15.4-6.8,23.3-12c7.9-5.1,15-10.2,21.3-15.3c0.8-0.7,1.5-1.4,2.3-1.9c0.8-0.5,1.4-1,2-1.5c0.8-0.6,1.5-1.2,2.1-1.7
		c0.7-0.5,1.5-1.2,2.4-1.9c0.5-0.1,1-0.2,1.6-0.2c1.2,0,1.8,0.5,1.8,1.6c0,0.9-0.4,1.7-1.1,2.5c-0.9,1.2-3.1,3.4-6.5,6.5
		c-3.5,3.2-7.7,6.7-12.7,10.6c-5,3.9-10.5,7.6-16.5,11.2c-5.9,3.5-11.9,6.4-17.9,8.5c-2.3,0.8-4.8,1.5-7.8,2.1
		C1572.8,422.7,1569.9,423,1567,423z"/>
</g>
</svg>
