<?xml version="1.0" encoding="utf-8"?>
<!-- Generator: Adobe Illustrator 23.0.0, SVG Export Plug-In . SVG Version: 6.00 Build 0)  -->
<svg version="1.1" id="Capa_1" xmlns="http://www.w3.org/2000/svg" xmlns:xlink="http://www.w3.org/1999/xlink" x="0px" y="0px"
	 viewBox="0 0 512 512" style="enable-background:new 0 0 512 512;" xml:space="preserve">
<style type="text/css">
	.st0{fill:#FFFFFF;}
</style>
<g>
	<g>
		<path class="st0" d="M480,143.7H378.8c7.3-5,13.5-9.9,17.9-14.3c25.8-26,25.8-68.2,0-94.1c-25.1-25.2-68.8-25.2-93.9,0
			c-13.9,13.9-50.7,70.6-45.6,108.4h-2.3c5.1-37.9-31.7-94.5-45.6-108.4c-25.1-25.2-68.8-25.2-93.9,0c-25.8,26-25.8,68.2,0,94.1
			c4.4,4.4,10.6,9.3,17.9,14.3H32c-17.6,0-32,14.4-32,32v80c0,8.8,7.2,16,16,16h16v192c0,17.6,14.4,32,32,32h384
			c17.6,0,32-14.4,32-32v-192h16c8.8,0,16-7.2,16-16v-80C512,158.1,497.6,143.7,480,143.7z M138.1,57.8c6.5-6.5,15.1-10.1,24.3-10.1
			c9.1,0,17.7,3.6,24.2,10.1c21.6,21.7,43,77.1,35.6,84.8c0,0-1.3,1.1-5.9,1.1c-22.1,0-64.3-23-78.1-36.9
			C124.7,93.3,124.7,71.3,138.1,57.8z M240,463.7H64v-192h176V463.7z M240,239.7H32v-64h184.2H240V239.7z M325.4,57.8
			c13-13,35.5-13,48.5,0c13.4,13.5,13.4,35.5,0,49c-13.8,13.9-56,36.9-78.1,36.9c-4.6,0-5.9-1-6-1.1
			C282.4,134.9,303.9,79.5,325.4,57.8z M448,463.7H272v-192h176V463.7z M480,239.7H272v-64h23.8H480V239.7z"/>
	</g>
</g>
</svg>
